G04 #@! TF.FileFunction,Copper,L2,Bot,Signal*
%FSLAX46Y46*%
G04 Gerber Fmt 4.6, Leading zero omitted, Abs format (unit mm)*
G04 Created by KiCad (PCBNEW 4.0.2+dfsg1-stable) date Thu 24 Aug 2017 14:03:52 CEST*
%MOMM*%
G01*
G04 APERTURE LIST*
%ADD10C,0.100000*%
%ADD11C,1.300000*%
%ADD12R,1.727200X2.032000*%
%ADD13O,1.727200X2.032000*%
%ADD14O,3.500120X7.000240*%
%ADD15O,1.600200X2.499360*%
%ADD16O,3.500120X1.699260*%
%ADD17C,1.524000*%
%ADD18R,3.810000X3.810000*%
%ADD19R,2.000000X2.000000*%
%ADD20C,2.000000*%
%ADD21C,1.800000*%
%ADD22C,4.600000*%
%ADD23C,1.600000*%
%ADD24R,1.600000X1.600000*%
%ADD25C,0.600000*%
%ADD26C,0.500000*%
%ADD27C,1.000000*%
%ADD28C,0.254000*%
G04 APERTURE END LIST*
D10*
D11*
X75900000Y-81680000D03*
X75900000Y-79140000D03*
X60660000Y-81680000D03*
X60660000Y-79140000D03*
X60660000Y-76600000D03*
X75900000Y-56540000D03*
X75900000Y-54000000D03*
X60660000Y-56540000D03*
X60660000Y-54000000D03*
X100540000Y-81680000D03*
X100540000Y-79140000D03*
X85300000Y-81680000D03*
X85300000Y-79140000D03*
X85300000Y-76600000D03*
X100540000Y-56540000D03*
X100540000Y-54000000D03*
X85300000Y-56540000D03*
X85300000Y-54000000D03*
D12*
X46630000Y-90500000D03*
D13*
X49170000Y-90500000D03*
X51710000Y-90500000D03*
X54250000Y-90500000D03*
D12*
X39130000Y-114750000D03*
D13*
X41670000Y-114750000D03*
X44210000Y-114750000D03*
X46750000Y-114750000D03*
X49290000Y-114750000D03*
X51830000Y-114750000D03*
D14*
X125500000Y-122000000D03*
X115301900Y-122000000D03*
D15*
X120402220Y-117735340D03*
X122901580Y-117735340D03*
D16*
X120000000Y-58000000D03*
X120000000Y-60540000D03*
X120000000Y-55460000D03*
D17*
X113710000Y-113540000D03*
X111170000Y-111000000D03*
X116250000Y-111000000D03*
D18*
X47300000Y-32200000D03*
X47300000Y-47490800D03*
X37500000Y-32200000D03*
X37500000Y-47490800D03*
X97700000Y-32200000D03*
X97700000Y-47490800D03*
X87900000Y-32200000D03*
X87900000Y-47490800D03*
X123600000Y-32200000D03*
X123600000Y-47490800D03*
X113800000Y-32200000D03*
X113800000Y-47490800D03*
X73100000Y-32200000D03*
X73100000Y-47490800D03*
X63300000Y-32200000D03*
X63300000Y-47490800D03*
D19*
X111250000Y-127750000D03*
D20*
X108710000Y-127750000D03*
D21*
X57000000Y-125800000D03*
X54500000Y-125800000D03*
X52000000Y-125800000D03*
D22*
X59500000Y-122500000D03*
X49500000Y-122500000D03*
D21*
X41750000Y-125800000D03*
X39250000Y-125800000D03*
X36750000Y-125800000D03*
D22*
X44250000Y-122500000D03*
X34250000Y-122500000D03*
D23*
X74640000Y-109620000D03*
X77180000Y-109620000D03*
X79720000Y-109620000D03*
X82260000Y-109620000D03*
X72100000Y-109620000D03*
X69560000Y-109620000D03*
X67020000Y-109620000D03*
X84800000Y-109620000D03*
X87340000Y-109620000D03*
X89880000Y-109620000D03*
X92420000Y-109620000D03*
X92420000Y-94380000D03*
X89880000Y-94380000D03*
X87340000Y-94380000D03*
X84800000Y-94380000D03*
X82260000Y-94380000D03*
X79720000Y-94380000D03*
X77180000Y-94380000D03*
X74640000Y-94380000D03*
X64480000Y-109620000D03*
X61940000Y-109620000D03*
X59400000Y-109620000D03*
X56860000Y-109620000D03*
X54320000Y-109620000D03*
X51780000Y-109620000D03*
X49240000Y-109620000D03*
X46700000Y-109620000D03*
X44160000Y-109620000D03*
X41620000Y-109620000D03*
X39080000Y-109620000D03*
X36540000Y-109620000D03*
D24*
X34000000Y-109620000D03*
D23*
X72100000Y-94380000D03*
X69560000Y-94380000D03*
X67020000Y-94380000D03*
X64480000Y-94380000D03*
X61940000Y-94380000D03*
X59400000Y-94380000D03*
X56860000Y-94380000D03*
X54320000Y-94380000D03*
X51780000Y-94380000D03*
X49240000Y-94380000D03*
X46700000Y-94380000D03*
X44160000Y-94380000D03*
X41620000Y-94380000D03*
X39080000Y-94380000D03*
X36540000Y-94380000D03*
X34000000Y-94380000D03*
D25*
X110000000Y-67500000D03*
X104250000Y-101250000D03*
X40000000Y-61500000D03*
X39980000Y-59750000D03*
X91631938Y-115032684D03*
X89880000Y-114220056D03*
D26*
X104250000Y-73250000D02*
X110000000Y-67500000D01*
X104250000Y-101250000D02*
X104250000Y-73250000D01*
D27*
X125500000Y-122000000D02*
X125500000Y-120333760D01*
X125500000Y-120333760D02*
X122901580Y-117735340D01*
X115301900Y-122000000D02*
X125500000Y-122000000D01*
X100540000Y-109988160D02*
X100540000Y-108000000D01*
D26*
X51750000Y-88933990D02*
X50296408Y-88933990D01*
X53123610Y-88933990D02*
X51750000Y-88933990D01*
X51750000Y-88933990D02*
X51710000Y-88973990D01*
X51710000Y-88973990D02*
X51710000Y-90500000D01*
X50296408Y-88933990D02*
X50296399Y-88933999D01*
X75900000Y-81680000D02*
X75900000Y-88250000D01*
X53123610Y-88933990D02*
X75216010Y-88933990D01*
X75216010Y-88933990D02*
X75900000Y-88250000D01*
D27*
X75900000Y-81680000D02*
X75900000Y-81000000D01*
X75900000Y-81000000D02*
X75900000Y-79140000D01*
D26*
X39130000Y-114750000D02*
X39130000Y-123420000D01*
X39130000Y-123420000D02*
X36750000Y-125800000D01*
X38880000Y-123670000D02*
X36750000Y-125800000D01*
X34000000Y-109620000D02*
X39130000Y-114750000D01*
X50296399Y-88933999D02*
X35816001Y-88933999D01*
X51710000Y-90500000D02*
X51710000Y-90347600D01*
X35816001Y-88933999D02*
X31849988Y-92900012D01*
X31849988Y-92900012D02*
X31849988Y-106169988D01*
X31849988Y-106169988D02*
X34000000Y-108320000D01*
X34000000Y-108320000D02*
X34000000Y-109620000D01*
X36750000Y-125800000D02*
X38200001Y-127250001D01*
X50549999Y-127250001D02*
X51100001Y-126699999D01*
X38200001Y-127250001D02*
X50549999Y-127250001D01*
X51100001Y-126699999D02*
X52000000Y-125800000D01*
X36750000Y-125800000D02*
X36750000Y-125254002D01*
D27*
X100540000Y-81680000D02*
X100540000Y-108000000D01*
X112551840Y-122000000D02*
X115301900Y-122000000D01*
X100540000Y-109988160D02*
X112551840Y-122000000D01*
X75900000Y-81680000D02*
X77970000Y-83750000D01*
X77970000Y-83750000D02*
X98470000Y-83750000D01*
X98470000Y-83750000D02*
X99890001Y-82329999D01*
X99890001Y-82329999D02*
X100540000Y-81680000D01*
X100540000Y-81680000D02*
X100540000Y-79140000D01*
X120000000Y-55460000D02*
X117249940Y-55460000D01*
X117249940Y-55460000D02*
X100540000Y-72169940D01*
X100540000Y-72169940D02*
X100540000Y-78220762D01*
X100540000Y-78220762D02*
X100540000Y-79140000D01*
X47300000Y-47490800D02*
X50205000Y-47490800D01*
X50205000Y-47490800D02*
X53610001Y-44085799D01*
X116905001Y-44085799D02*
X120000000Y-47180798D01*
X53610001Y-44085799D02*
X116905001Y-44085799D01*
X120000000Y-47180798D02*
X120000000Y-53610370D01*
X120000000Y-53610370D02*
X120000000Y-55460000D01*
D26*
X41520001Y-119649999D02*
X41670000Y-119500000D01*
X41670000Y-119500000D02*
X41670000Y-114750000D01*
X56100001Y-119750000D02*
X56200002Y-119649999D01*
X56200002Y-119649999D02*
X59530001Y-119649999D01*
X59530001Y-119649999D02*
X69560000Y-109620000D01*
X41420000Y-121111998D02*
X41420000Y-119750000D01*
X56100001Y-119750000D02*
X56000000Y-119649999D01*
X56000000Y-119649999D02*
X41520001Y-119649999D01*
X41520001Y-119649999D02*
X41420000Y-119750000D01*
X56100001Y-124900001D02*
X56100001Y-119750000D01*
X41399999Y-121131999D02*
X41420000Y-121111998D01*
X41399999Y-121131999D02*
X41399999Y-124177207D01*
X45266400Y-90500000D02*
X46630000Y-90500000D01*
X35381386Y-90500000D02*
X45266400Y-90500000D01*
X32649999Y-93231387D02*
X35381386Y-90500000D01*
X32649999Y-101931363D02*
X32649999Y-93231387D01*
X37488626Y-106769990D02*
X32649999Y-101931363D01*
X66709990Y-106769990D02*
X37488626Y-106769990D01*
X69560000Y-109620000D02*
X66709990Y-106769990D01*
X57000000Y-125800000D02*
X56100001Y-124900001D01*
X41399999Y-124177207D02*
X41750000Y-124527208D01*
X41750000Y-124527208D02*
X41750000Y-125800000D01*
X69560000Y-109620000D02*
X68209999Y-110970001D01*
X92420000Y-114244622D02*
X91631938Y-115032684D01*
X92420000Y-109620000D02*
X92420000Y-114244622D01*
X89880000Y-109620000D02*
X89880000Y-114220056D01*
D27*
X85300000Y-81680000D02*
X85300000Y-79140000D01*
X62500000Y-50895801D02*
X87250000Y-50895801D01*
X87250000Y-50895801D02*
X107489999Y-50895801D01*
X85300000Y-79140000D02*
X86219238Y-79140000D01*
X86219238Y-79140000D02*
X87450001Y-77909237D01*
X87450001Y-77909237D02*
X87450001Y-51095802D01*
X87450001Y-51095802D02*
X87250000Y-50895801D01*
X60660000Y-81680000D02*
X60660000Y-79140000D01*
X43810001Y-50895801D02*
X62500000Y-50895801D01*
X60660000Y-79140000D02*
X61579238Y-79140000D01*
X61579238Y-79140000D02*
X62810001Y-77909237D01*
X62810001Y-77909237D02*
X62810001Y-51205802D01*
X62810001Y-51205802D02*
X62500000Y-50895801D01*
X37500000Y-47490800D02*
X40405000Y-47490800D01*
X40405000Y-47490800D02*
X43810001Y-50895801D01*
X107489999Y-50895801D02*
X110895000Y-47490800D01*
X110895000Y-47490800D02*
X113800000Y-47490800D01*
X120000000Y-58000000D02*
X122750060Y-58000000D01*
X123600000Y-50395800D02*
X123600000Y-47490800D01*
X122750060Y-58000000D02*
X123600000Y-57150060D01*
X123600000Y-57150060D02*
X123600000Y-50395800D01*
D28*
G36*
X34445921Y-34105000D02*
X34524506Y-34522641D01*
X34771331Y-34906219D01*
X35147944Y-35163548D01*
X35595000Y-35254079D01*
X39405000Y-35254079D01*
X39822641Y-35175494D01*
X40206219Y-34928669D01*
X40463548Y-34552056D01*
X40554079Y-34105000D01*
X40554079Y-32485750D01*
X44760000Y-32485750D01*
X44760000Y-34231309D01*
X44856673Y-34464698D01*
X45035301Y-34643327D01*
X45268690Y-34740000D01*
X47014250Y-34740000D01*
X47173000Y-34581250D01*
X47173000Y-32327000D01*
X47427000Y-32327000D01*
X47427000Y-34581250D01*
X47585750Y-34740000D01*
X49331310Y-34740000D01*
X49564699Y-34643327D01*
X49743327Y-34464698D01*
X49840000Y-34231309D01*
X49840000Y-32485750D01*
X49681250Y-32327000D01*
X47427000Y-32327000D01*
X47173000Y-32327000D01*
X44918750Y-32327000D01*
X44760000Y-32485750D01*
X40554079Y-32485750D01*
X40554079Y-31202000D01*
X44760000Y-31202000D01*
X44760000Y-31914250D01*
X44918750Y-32073000D01*
X47173000Y-32073000D01*
X47173000Y-32053000D01*
X47427000Y-32053000D01*
X47427000Y-32073000D01*
X49681250Y-32073000D01*
X49840000Y-31914250D01*
X49840000Y-31202000D01*
X60245921Y-31202000D01*
X60245921Y-34105000D01*
X60324506Y-34522641D01*
X60571331Y-34906219D01*
X60947944Y-35163548D01*
X61395000Y-35254079D01*
X65205000Y-35254079D01*
X65622641Y-35175494D01*
X66006219Y-34928669D01*
X66263548Y-34552056D01*
X66354079Y-34105000D01*
X66354079Y-31202000D01*
X70045921Y-31202000D01*
X70045921Y-34105000D01*
X70124506Y-34522641D01*
X70371331Y-34906219D01*
X70747944Y-35163548D01*
X71195000Y-35254079D01*
X75005000Y-35254079D01*
X75422641Y-35175494D01*
X75806219Y-34928669D01*
X76063548Y-34552056D01*
X76154079Y-34105000D01*
X76154079Y-31202000D01*
X84845921Y-31202000D01*
X84845921Y-34105000D01*
X84924506Y-34522641D01*
X85171331Y-34906219D01*
X85547944Y-35163548D01*
X85995000Y-35254079D01*
X89805000Y-35254079D01*
X90222641Y-35175494D01*
X90606219Y-34928669D01*
X90863548Y-34552056D01*
X90954079Y-34105000D01*
X90954079Y-31202000D01*
X94645921Y-31202000D01*
X94645921Y-34105000D01*
X94724506Y-34522641D01*
X94971331Y-34906219D01*
X95347944Y-35163548D01*
X95795000Y-35254079D01*
X99605000Y-35254079D01*
X100022641Y-35175494D01*
X100406219Y-34928669D01*
X100663548Y-34552056D01*
X100754079Y-34105000D01*
X100754079Y-31202000D01*
X110745921Y-31202000D01*
X110745921Y-34105000D01*
X110824506Y-34522641D01*
X111071331Y-34906219D01*
X111447944Y-35163548D01*
X111895000Y-35254079D01*
X115705000Y-35254079D01*
X116122641Y-35175494D01*
X116506219Y-34928669D01*
X116763548Y-34552056D01*
X116854079Y-34105000D01*
X116854079Y-31202000D01*
X120545921Y-31202000D01*
X120545921Y-34105000D01*
X120624506Y-34522641D01*
X120871331Y-34906219D01*
X121247944Y-35163548D01*
X121695000Y-35254079D01*
X125505000Y-35254079D01*
X125922641Y-35175494D01*
X126306219Y-34928669D01*
X126563548Y-34552056D01*
X126654079Y-34105000D01*
X126654079Y-31202000D01*
X128373000Y-31202000D01*
X128373000Y-128798000D01*
X113389359Y-128798000D01*
X113399079Y-128750000D01*
X113399079Y-126750000D01*
X113320494Y-126332359D01*
X113073669Y-125948781D01*
X112697056Y-125691452D01*
X112250000Y-125600921D01*
X110250000Y-125600921D01*
X109832359Y-125679506D01*
X109611850Y-125821399D01*
X109134943Y-125623370D01*
X108288770Y-125622632D01*
X107506726Y-125945766D01*
X106907869Y-126543578D01*
X106583370Y-127325057D01*
X106582632Y-128171230D01*
X106841608Y-128798000D01*
X106202000Y-128798000D01*
X106202000Y-122127000D01*
X112916840Y-122127000D01*
X112916840Y-123877060D01*
X113146993Y-124780116D01*
X113705211Y-125526355D01*
X114506510Y-126002169D01*
X114803887Y-126082546D01*
X115174900Y-125972745D01*
X115174900Y-122127000D01*
X115428900Y-122127000D01*
X115428900Y-125972745D01*
X115799913Y-126082546D01*
X116097290Y-126002169D01*
X116898589Y-125526355D01*
X117456807Y-124780116D01*
X117686960Y-123877060D01*
X117686960Y-122127000D01*
X123114940Y-122127000D01*
X123114940Y-123877060D01*
X123345093Y-124780116D01*
X123903311Y-125526355D01*
X124704610Y-126002169D01*
X125001987Y-126082546D01*
X125373000Y-125972745D01*
X125373000Y-122127000D01*
X125627000Y-122127000D01*
X125627000Y-125972745D01*
X125998013Y-126082546D01*
X126295390Y-126002169D01*
X127096689Y-125526355D01*
X127654907Y-124780116D01*
X127885060Y-123877060D01*
X127885060Y-122127000D01*
X125627000Y-122127000D01*
X125373000Y-122127000D01*
X123114940Y-122127000D01*
X117686960Y-122127000D01*
X115428900Y-122127000D01*
X115174900Y-122127000D01*
X112916840Y-122127000D01*
X106202000Y-122127000D01*
X106202000Y-120122940D01*
X112916840Y-120122940D01*
X112916840Y-121873000D01*
X115174900Y-121873000D01*
X115174900Y-118027255D01*
X115428900Y-118027255D01*
X115428900Y-121873000D01*
X117686960Y-121873000D01*
X117686960Y-120122940D01*
X117456807Y-119219884D01*
X116898589Y-118473645D01*
X116097290Y-117997831D01*
X115799913Y-117917454D01*
X115428900Y-118027255D01*
X115174900Y-118027255D01*
X114803887Y-117917454D01*
X114506510Y-117997831D01*
X113705211Y-118473645D01*
X113146993Y-119219884D01*
X112916840Y-120122940D01*
X106202000Y-120122940D01*
X106202000Y-120000000D01*
X106110503Y-119540015D01*
X105849942Y-119150058D01*
X105459985Y-118889497D01*
X105000000Y-118798000D01*
X65000000Y-118798000D01*
X64540015Y-118889497D01*
X64150058Y-119150058D01*
X63889497Y-119540015D01*
X63798000Y-120000000D01*
X63798000Y-128798000D01*
X31627000Y-128798000D01*
X31627000Y-124723163D01*
X32306226Y-125403575D01*
X33565337Y-125926404D01*
X34928682Y-125927594D01*
X35214054Y-125809681D01*
X35229161Y-126169460D01*
X35413357Y-126614148D01*
X35669841Y-126700554D01*
X36570395Y-125800000D01*
X36556253Y-125785858D01*
X36735858Y-125606253D01*
X36750000Y-125620395D01*
X36764143Y-125606253D01*
X36943748Y-125785858D01*
X36929605Y-125800000D01*
X36943748Y-125814143D01*
X36764143Y-125993748D01*
X36750000Y-125979605D01*
X35849446Y-126880159D01*
X35935852Y-127136643D01*
X36509336Y-127346458D01*
X37119460Y-127320839D01*
X37564148Y-127136643D01*
X37603523Y-127019763D01*
X38100298Y-127517405D01*
X38845036Y-127826647D01*
X39651426Y-127827351D01*
X40396703Y-127519409D01*
X40499680Y-127416611D01*
X40600298Y-127517405D01*
X41345036Y-127826647D01*
X42151426Y-127827351D01*
X42896703Y-127519409D01*
X43467405Y-126949702D01*
X43776647Y-126204964D01*
X43776890Y-125926589D01*
X44928682Y-125927594D01*
X46188704Y-125406963D01*
X46875352Y-124721512D01*
X47556226Y-125403575D01*
X48815337Y-125926404D01*
X50178682Y-125927594D01*
X50464054Y-125809681D01*
X50479161Y-126169460D01*
X50663357Y-126614148D01*
X50919841Y-126700554D01*
X51820395Y-125800000D01*
X51806253Y-125785858D01*
X51985858Y-125606253D01*
X52000000Y-125620395D01*
X52014143Y-125606253D01*
X52193748Y-125785858D01*
X52179605Y-125800000D01*
X52193748Y-125814143D01*
X52014143Y-125993748D01*
X52000000Y-125979605D01*
X51099446Y-126880159D01*
X51185852Y-127136643D01*
X51759336Y-127346458D01*
X52369460Y-127320839D01*
X52814148Y-127136643D01*
X52853523Y-127019763D01*
X53350298Y-127517405D01*
X54095036Y-127826647D01*
X54901426Y-127827351D01*
X55646703Y-127519409D01*
X55749680Y-127416611D01*
X55850298Y-127517405D01*
X56595036Y-127826647D01*
X57401426Y-127827351D01*
X58146703Y-127519409D01*
X58717405Y-126949702D01*
X59026647Y-126204964D01*
X59026890Y-125926589D01*
X60178682Y-125927594D01*
X61438704Y-125406963D01*
X62403575Y-124443774D01*
X62926404Y-123184663D01*
X62927594Y-121821318D01*
X62406963Y-120561296D01*
X61487322Y-119640050D01*
X63888174Y-117239198D01*
X118475120Y-117239198D01*
X118475120Y-118231482D01*
X118621812Y-118968951D01*
X119039555Y-119594147D01*
X119664751Y-120011890D01*
X120402220Y-120158582D01*
X121139689Y-120011890D01*
X121764885Y-119594147D01*
X121972154Y-119283947D01*
X121976613Y-119289492D01*
X122469723Y-119559381D01*
X122552525Y-119576923D01*
X122774580Y-119454936D01*
X122774580Y-117862340D01*
X123028580Y-117862340D01*
X123028580Y-119454936D01*
X123250635Y-119576923D01*
X123254296Y-119576147D01*
X123114940Y-120122940D01*
X123114940Y-121873000D01*
X125373000Y-121873000D01*
X125373000Y-118027255D01*
X125627000Y-118027255D01*
X125627000Y-121873000D01*
X127885060Y-121873000D01*
X127885060Y-120122940D01*
X127654907Y-119219884D01*
X127096689Y-118473645D01*
X126295390Y-117997831D01*
X125998013Y-117917454D01*
X125627000Y-118027255D01*
X125373000Y-118027255D01*
X125001987Y-117917454D01*
X124704610Y-117997831D01*
X124336680Y-118216309D01*
X124336680Y-117862340D01*
X123028580Y-117862340D01*
X122774580Y-117862340D01*
X122754580Y-117862340D01*
X122754580Y-117608340D01*
X122774580Y-117608340D01*
X122774580Y-116015744D01*
X123028580Y-116015744D01*
X123028580Y-117608340D01*
X124336680Y-117608340D01*
X124336680Y-117158760D01*
X124178839Y-116619238D01*
X123826547Y-116181188D01*
X123333437Y-115911299D01*
X123250635Y-115893757D01*
X123028580Y-116015744D01*
X122774580Y-116015744D01*
X122552525Y-115893757D01*
X122469723Y-115911299D01*
X121976613Y-116181188D01*
X121972154Y-116186733D01*
X121764885Y-115876533D01*
X121139689Y-115458790D01*
X120402220Y-115312098D01*
X119664751Y-115458790D01*
X119039555Y-115876533D01*
X118621812Y-116501729D01*
X118475120Y-117239198D01*
X63888174Y-117239198D01*
X69580353Y-111547019D01*
X69941622Y-111547334D01*
X70650132Y-111254584D01*
X70829839Y-111075190D01*
X71007017Y-111252678D01*
X71715014Y-111546665D01*
X72481622Y-111547334D01*
X73190132Y-111254584D01*
X73369839Y-111075190D01*
X73547017Y-111252678D01*
X74255014Y-111546665D01*
X75021622Y-111547334D01*
X75730132Y-111254584D01*
X75909839Y-111075190D01*
X76087017Y-111252678D01*
X76795014Y-111546665D01*
X77561622Y-111547334D01*
X78270132Y-111254584D01*
X78449839Y-111075190D01*
X78627017Y-111252678D01*
X79335014Y-111546665D01*
X80101622Y-111547334D01*
X80810132Y-111254584D01*
X80989839Y-111075190D01*
X81167017Y-111252678D01*
X81875014Y-111546665D01*
X82641622Y-111547334D01*
X83350132Y-111254584D01*
X83529839Y-111075190D01*
X83707017Y-111252678D01*
X84415014Y-111546665D01*
X85181622Y-111547334D01*
X85890132Y-111254584D01*
X86069839Y-111075190D01*
X86247017Y-111252678D01*
X86955014Y-111546665D01*
X87721622Y-111547334D01*
X88430132Y-111254584D01*
X88503000Y-111181843D01*
X88503000Y-113815147D01*
X88453248Y-113934963D01*
X88452752Y-114502659D01*
X88669543Y-115027331D01*
X89070614Y-115429103D01*
X89594907Y-115646808D01*
X90162603Y-115647304D01*
X90315733Y-115584032D01*
X90421481Y-115839959D01*
X90822552Y-116241731D01*
X91346845Y-116459436D01*
X91914541Y-116459932D01*
X92439213Y-116243141D01*
X92840985Y-115842070D01*
X92891445Y-115720549D01*
X93393686Y-115218308D01*
X93692182Y-114771577D01*
X93797000Y-114244622D01*
X93797000Y-111374097D01*
X109280673Y-111374097D01*
X109567650Y-112068635D01*
X110098570Y-112600483D01*
X110792606Y-112888672D01*
X111544097Y-112889327D01*
X112015721Y-112694456D01*
X111821328Y-113162606D01*
X111820673Y-113914097D01*
X112107650Y-114608635D01*
X112638570Y-115140483D01*
X113332606Y-115428672D01*
X114084097Y-115429327D01*
X114778635Y-115142350D01*
X115310483Y-114611430D01*
X115598672Y-113917394D01*
X115599327Y-113165903D01*
X115404456Y-112694279D01*
X115872606Y-112888672D01*
X116624097Y-112889327D01*
X117318635Y-112602350D01*
X117850483Y-112071430D01*
X118138672Y-111377394D01*
X118139327Y-110625903D01*
X117852350Y-109931365D01*
X117321430Y-109399517D01*
X116627394Y-109111328D01*
X115875903Y-109110673D01*
X115181365Y-109397650D01*
X114649517Y-109928570D01*
X114361328Y-110622606D01*
X114360673Y-111374097D01*
X114555544Y-111845721D01*
X114087394Y-111651328D01*
X113335903Y-111650673D01*
X112864279Y-111845544D01*
X113058672Y-111377394D01*
X113059327Y-110625903D01*
X112772350Y-109931365D01*
X112241430Y-109399517D01*
X111547394Y-109111328D01*
X110795903Y-109110673D01*
X110101365Y-109397650D01*
X109569517Y-109928570D01*
X109281328Y-110622606D01*
X109280673Y-111374097D01*
X93797000Y-111374097D01*
X93797000Y-110968216D01*
X94052678Y-110712983D01*
X94346665Y-110004986D01*
X94347334Y-109238378D01*
X94054584Y-108529868D01*
X93512983Y-107987322D01*
X92804986Y-107693335D01*
X92038378Y-107692666D01*
X91329868Y-107985416D01*
X91150161Y-108164810D01*
X90972983Y-107987322D01*
X90264986Y-107693335D01*
X89498378Y-107692666D01*
X88789868Y-107985416D01*
X88610161Y-108164810D01*
X88432983Y-107987322D01*
X87724986Y-107693335D01*
X86958378Y-107692666D01*
X86249868Y-107985416D01*
X86070161Y-108164810D01*
X85892983Y-107987322D01*
X85184986Y-107693335D01*
X84418378Y-107692666D01*
X83709868Y-107985416D01*
X83530161Y-108164810D01*
X83352983Y-107987322D01*
X82644986Y-107693335D01*
X81878378Y-107692666D01*
X81169868Y-107985416D01*
X80990161Y-108164810D01*
X80812983Y-107987322D01*
X80104986Y-107693335D01*
X79338378Y-107692666D01*
X78629868Y-107985416D01*
X78450161Y-108164810D01*
X78272983Y-107987322D01*
X77564986Y-107693335D01*
X76798378Y-107692666D01*
X76089868Y-107985416D01*
X75910161Y-108164810D01*
X75732983Y-107987322D01*
X75024986Y-107693335D01*
X74258378Y-107692666D01*
X73549868Y-107985416D01*
X73370161Y-108164810D01*
X73192983Y-107987322D01*
X72484986Y-107693335D01*
X71718378Y-107692666D01*
X71009868Y-107985416D01*
X70830161Y-108164810D01*
X70652983Y-107987322D01*
X69944986Y-107693335D01*
X69580389Y-107693017D01*
X67683676Y-105796304D01*
X67236945Y-105497808D01*
X66709990Y-105392990D01*
X38058998Y-105392990D01*
X34198611Y-101532603D01*
X102822752Y-101532603D01*
X103039543Y-102057275D01*
X103440614Y-102459047D01*
X103964907Y-102676752D01*
X104532603Y-102677248D01*
X105057275Y-102460457D01*
X105459047Y-102059386D01*
X105676752Y-101535093D01*
X105677248Y-100967397D01*
X105627000Y-100845788D01*
X105627000Y-73820372D01*
X110687372Y-68760000D01*
X110807275Y-68710457D01*
X111209047Y-68309386D01*
X111426752Y-67785093D01*
X111427248Y-67217397D01*
X111210457Y-66692725D01*
X110809386Y-66290953D01*
X110285093Y-66073248D01*
X109717397Y-66072752D01*
X109192725Y-66289543D01*
X108790953Y-66690614D01*
X108740493Y-66812135D01*
X103276314Y-72276314D01*
X102977818Y-72723045D01*
X102873000Y-73250000D01*
X102873000Y-100845091D01*
X102823248Y-100964907D01*
X102822752Y-101532603D01*
X34198611Y-101532603D01*
X34026999Y-101360991D01*
X34026999Y-96307025D01*
X34381622Y-96307334D01*
X35090132Y-96014584D01*
X35269839Y-95835190D01*
X35447017Y-96012678D01*
X36155014Y-96306665D01*
X36921622Y-96307334D01*
X37630132Y-96014584D01*
X37809839Y-95835190D01*
X37987017Y-96012678D01*
X38695014Y-96306665D01*
X39461622Y-96307334D01*
X40170132Y-96014584D01*
X40349839Y-95835190D01*
X40527017Y-96012678D01*
X41235014Y-96306665D01*
X42001622Y-96307334D01*
X42710132Y-96014584D01*
X42889839Y-95835190D01*
X43067017Y-96012678D01*
X43775014Y-96306665D01*
X44541622Y-96307334D01*
X45250132Y-96014584D01*
X45429839Y-95835190D01*
X45607017Y-96012678D01*
X46315014Y-96306665D01*
X47081622Y-96307334D01*
X47790132Y-96014584D01*
X47969839Y-95835190D01*
X48147017Y-96012678D01*
X48855014Y-96306665D01*
X49621622Y-96307334D01*
X50330132Y-96014584D01*
X50509839Y-95835190D01*
X50687017Y-96012678D01*
X51395014Y-96306665D01*
X52161622Y-96307334D01*
X52870132Y-96014584D01*
X53049839Y-95835190D01*
X53227017Y-96012678D01*
X53935014Y-96306665D01*
X54701622Y-96307334D01*
X55410132Y-96014584D01*
X55589839Y-95835190D01*
X55767017Y-96012678D01*
X56475014Y-96306665D01*
X57241622Y-96307334D01*
X57950132Y-96014584D01*
X58129839Y-95835190D01*
X58307017Y-96012678D01*
X59015014Y-96306665D01*
X59781622Y-96307334D01*
X60490132Y-96014584D01*
X60669839Y-95835190D01*
X60847017Y-96012678D01*
X61555014Y-96306665D01*
X62321622Y-96307334D01*
X63030132Y-96014584D01*
X63209839Y-95835190D01*
X63387017Y-96012678D01*
X64095014Y-96306665D01*
X64861622Y-96307334D01*
X65570132Y-96014584D01*
X65749839Y-95835190D01*
X65927017Y-96012678D01*
X66635014Y-96306665D01*
X67401622Y-96307334D01*
X68110132Y-96014584D01*
X68289839Y-95835190D01*
X68467017Y-96012678D01*
X69175014Y-96306665D01*
X69941622Y-96307334D01*
X70650132Y-96014584D01*
X70829839Y-95835190D01*
X71007017Y-96012678D01*
X71715014Y-96306665D01*
X72481622Y-96307334D01*
X73190132Y-96014584D01*
X73369839Y-95835190D01*
X73547017Y-96012678D01*
X74255014Y-96306665D01*
X75021622Y-96307334D01*
X75730132Y-96014584D01*
X75909839Y-95835190D01*
X76087017Y-96012678D01*
X76795014Y-96306665D01*
X77561622Y-96307334D01*
X78270132Y-96014584D01*
X78449839Y-95835190D01*
X78627017Y-96012678D01*
X79335014Y-96306665D01*
X80101622Y-96307334D01*
X80810132Y-96014584D01*
X80989839Y-95835190D01*
X81167017Y-96012678D01*
X81875014Y-96306665D01*
X82641622Y-96307334D01*
X83350132Y-96014584D01*
X83529839Y-95835190D01*
X83707017Y-96012678D01*
X84415014Y-96306665D01*
X85181622Y-96307334D01*
X85890132Y-96014584D01*
X86069839Y-95835190D01*
X86247017Y-96012678D01*
X86955014Y-96306665D01*
X87721622Y-96307334D01*
X88430132Y-96014584D01*
X88609839Y-95835190D01*
X88787017Y-96012678D01*
X89495014Y-96306665D01*
X90261622Y-96307334D01*
X90970132Y-96014584D01*
X91149839Y-95835190D01*
X91327017Y-96012678D01*
X92035014Y-96306665D01*
X92801622Y-96307334D01*
X93510132Y-96014584D01*
X94052678Y-95472983D01*
X94346665Y-94764986D01*
X94347334Y-93998378D01*
X94054584Y-93289868D01*
X93512983Y-92747322D01*
X92804986Y-92453335D01*
X92038378Y-92452666D01*
X91329868Y-92745416D01*
X91150161Y-92924810D01*
X90972983Y-92747322D01*
X90264986Y-92453335D01*
X89498378Y-92452666D01*
X88789868Y-92745416D01*
X88610161Y-92924810D01*
X88432983Y-92747322D01*
X87724986Y-92453335D01*
X86958378Y-92452666D01*
X86249868Y-92745416D01*
X86070161Y-92924810D01*
X85892983Y-92747322D01*
X85184986Y-92453335D01*
X84418378Y-92452666D01*
X83709868Y-92745416D01*
X83530161Y-92924810D01*
X83352983Y-92747322D01*
X82644986Y-92453335D01*
X81878378Y-92452666D01*
X81169868Y-92745416D01*
X80990161Y-92924810D01*
X80812983Y-92747322D01*
X80104986Y-92453335D01*
X79338378Y-92452666D01*
X78629868Y-92745416D01*
X78450161Y-92924810D01*
X78272983Y-92747322D01*
X77564986Y-92453335D01*
X76798378Y-92452666D01*
X76089868Y-92745416D01*
X75910161Y-92924810D01*
X75732983Y-92747322D01*
X75024986Y-92453335D01*
X74258378Y-92452666D01*
X73549868Y-92745416D01*
X73370161Y-92924810D01*
X73192983Y-92747322D01*
X72484986Y-92453335D01*
X71718378Y-92452666D01*
X71009868Y-92745416D01*
X70830161Y-92924810D01*
X70652983Y-92747322D01*
X69944986Y-92453335D01*
X69178378Y-92452666D01*
X68469868Y-92745416D01*
X68290161Y-92924810D01*
X68112983Y-92747322D01*
X67404986Y-92453335D01*
X66638378Y-92452666D01*
X65929868Y-92745416D01*
X65750161Y-92924810D01*
X65572983Y-92747322D01*
X64864986Y-92453335D01*
X64098378Y-92452666D01*
X63389868Y-92745416D01*
X63210161Y-92924810D01*
X63032983Y-92747322D01*
X62324986Y-92453335D01*
X61558378Y-92452666D01*
X60849868Y-92745416D01*
X60670161Y-92924810D01*
X60492983Y-92747322D01*
X59784986Y-92453335D01*
X59018378Y-92452666D01*
X58309868Y-92745416D01*
X58130161Y-92924810D01*
X57952983Y-92747322D01*
X57244986Y-92453335D01*
X56478378Y-92452666D01*
X55769868Y-92745416D01*
X55590161Y-92924810D01*
X55412983Y-92747322D01*
X54934811Y-92548767D01*
X55011770Y-92533459D01*
X55657567Y-92101951D01*
X56089075Y-91456154D01*
X56240600Y-90694384D01*
X56240600Y-90305616D01*
X56089075Y-89543846D01*
X55657567Y-88898049D01*
X55011770Y-88466541D01*
X54250000Y-88315016D01*
X53488230Y-88466541D01*
X52842433Y-88898049D01*
X52647816Y-89189314D01*
X52612036Y-89149268D01*
X52084791Y-88895291D01*
X52069026Y-88892642D01*
X51837000Y-89013783D01*
X51837000Y-90373000D01*
X51857000Y-90373000D01*
X51857000Y-90627000D01*
X51837000Y-90627000D01*
X51837000Y-91986217D01*
X52069026Y-92107358D01*
X52084791Y-92104709D01*
X52612036Y-91850732D01*
X52647816Y-91810686D01*
X52842433Y-92101951D01*
X53488230Y-92533459D01*
X53660103Y-92567647D01*
X53229868Y-92745416D01*
X53050161Y-92924810D01*
X52872983Y-92747322D01*
X52164986Y-92453335D01*
X51398378Y-92452666D01*
X50689868Y-92745416D01*
X50510161Y-92924810D01*
X50332983Y-92747322D01*
X49854811Y-92548767D01*
X49931770Y-92533459D01*
X50577567Y-92101951D01*
X50772184Y-91810686D01*
X50807964Y-91850732D01*
X51335209Y-92104709D01*
X51350974Y-92107358D01*
X51583000Y-91986217D01*
X51583000Y-90627000D01*
X51563000Y-90627000D01*
X51563000Y-90373000D01*
X51583000Y-90373000D01*
X51583000Y-89013783D01*
X51350974Y-88892642D01*
X51335209Y-88895291D01*
X50807964Y-89149268D01*
X50772184Y-89189314D01*
X50577567Y-88898049D01*
X49931770Y-88466541D01*
X49170000Y-88315016D01*
X48408230Y-88466541D01*
X48202236Y-88604182D01*
X47940656Y-88425452D01*
X47493600Y-88334921D01*
X45766400Y-88334921D01*
X45348759Y-88413506D01*
X44965181Y-88660331D01*
X44707852Y-89036944D01*
X44690425Y-89123000D01*
X35381386Y-89123000D01*
X34854431Y-89227818D01*
X34407700Y-89526314D01*
X31676313Y-92257701D01*
X31627000Y-92331503D01*
X31627000Y-45585800D01*
X34445921Y-45585800D01*
X34445921Y-49395800D01*
X34524506Y-49813441D01*
X34771331Y-50197019D01*
X35147944Y-50454348D01*
X35595000Y-50544879D01*
X39405000Y-50544879D01*
X39822641Y-50466294D01*
X40206219Y-50219469D01*
X40460537Y-49847263D01*
X42659536Y-52046261D01*
X42659538Y-52046264D01*
X42958861Y-52246265D01*
X43187375Y-52398953D01*
X43810001Y-52522802D01*
X43810006Y-52522801D01*
X59624527Y-52522801D01*
X59154412Y-52992096D01*
X58883310Y-53644982D01*
X58882693Y-54351916D01*
X59152655Y-55005274D01*
X59416943Y-55270024D01*
X59154412Y-55532096D01*
X58883310Y-56184982D01*
X58882693Y-56891916D01*
X59152655Y-57545274D01*
X59652096Y-58045588D01*
X60304982Y-58316690D01*
X61011916Y-58317307D01*
X61183001Y-58246616D01*
X61183001Y-74893063D01*
X61015018Y-74823310D01*
X60308084Y-74822693D01*
X59654726Y-75092655D01*
X59154412Y-75592096D01*
X58883310Y-76244982D01*
X58882693Y-76951916D01*
X59152655Y-77605274D01*
X59416943Y-77870024D01*
X59154412Y-78132096D01*
X58883310Y-78784982D01*
X58882693Y-79491916D01*
X59033000Y-79855687D01*
X59033000Y-80964489D01*
X58883310Y-81324982D01*
X58882693Y-82031916D01*
X59152655Y-82685274D01*
X59652096Y-83185588D01*
X60304982Y-83456690D01*
X61011916Y-83457307D01*
X61665274Y-83187345D01*
X62165588Y-82687904D01*
X62210802Y-82579016D01*
X75180590Y-82579016D01*
X75236271Y-82809611D01*
X75719078Y-82977622D01*
X76229428Y-82948083D01*
X76563729Y-82809611D01*
X76619410Y-82579016D01*
X75900000Y-81859605D01*
X75180590Y-82579016D01*
X62210802Y-82579016D01*
X62436690Y-82035018D01*
X62437157Y-81499078D01*
X74602378Y-81499078D01*
X74631917Y-82009428D01*
X74770389Y-82343729D01*
X75000984Y-82399410D01*
X75720395Y-81680000D01*
X76079605Y-81680000D01*
X76799016Y-82399410D01*
X77029611Y-82343729D01*
X77197622Y-81860922D01*
X77168083Y-81350572D01*
X77029611Y-81016271D01*
X76799016Y-80960590D01*
X76079605Y-81680000D01*
X75720395Y-81680000D01*
X75000984Y-80960590D01*
X74770389Y-81016271D01*
X74602378Y-81499078D01*
X62437157Y-81499078D01*
X62437307Y-81328084D01*
X62287000Y-80964313D01*
X62287000Y-80586266D01*
X62729701Y-80290463D01*
X62981148Y-80039016D01*
X75180590Y-80039016D01*
X75236271Y-80269611D01*
X75634566Y-80408213D01*
X75570572Y-80411917D01*
X75236271Y-80550389D01*
X75180590Y-80780984D01*
X75900000Y-81500395D01*
X76619410Y-80780984D01*
X76563729Y-80550389D01*
X76165434Y-80411787D01*
X76229428Y-80408083D01*
X76563729Y-80269611D01*
X76619410Y-80039016D01*
X75900000Y-79319605D01*
X75180590Y-80039016D01*
X62981148Y-80039016D01*
X63960464Y-79059700D01*
X64027697Y-78959078D01*
X74602378Y-78959078D01*
X74631917Y-79469428D01*
X74770389Y-79803729D01*
X75000984Y-79859410D01*
X75720395Y-79140000D01*
X76079605Y-79140000D01*
X76799016Y-79859410D01*
X77029611Y-79803729D01*
X77197622Y-79320922D01*
X77168083Y-78810572D01*
X77029611Y-78476271D01*
X76799016Y-78420590D01*
X76079605Y-79140000D01*
X75720395Y-79140000D01*
X75000984Y-78420590D01*
X74770389Y-78476271D01*
X74602378Y-78959078D01*
X64027697Y-78959078D01*
X64313153Y-78531863D01*
X64371012Y-78240984D01*
X75180590Y-78240984D01*
X75900000Y-78960395D01*
X76619410Y-78240984D01*
X76563729Y-78010389D01*
X76080922Y-77842378D01*
X75570572Y-77871917D01*
X75236271Y-78010389D01*
X75180590Y-78240984D01*
X64371012Y-78240984D01*
X64437002Y-77909237D01*
X64437001Y-77909232D01*
X64437001Y-52522801D01*
X74864527Y-52522801D01*
X74394412Y-52992096D01*
X74123310Y-53644982D01*
X74122693Y-54351916D01*
X74392655Y-55005274D01*
X74656943Y-55270024D01*
X74394412Y-55532096D01*
X74123310Y-56184982D01*
X74122693Y-56891916D01*
X74392655Y-57545274D01*
X74892096Y-58045588D01*
X75544982Y-58316690D01*
X76251916Y-58317307D01*
X76905274Y-58047345D01*
X77405588Y-57547904D01*
X77676690Y-56895018D01*
X77677307Y-56188084D01*
X77407345Y-55534726D01*
X77143057Y-55269976D01*
X77405588Y-55007904D01*
X77676690Y-54355018D01*
X77677307Y-53648084D01*
X77407345Y-52994726D01*
X76936243Y-52522801D01*
X84264527Y-52522801D01*
X83794412Y-52992096D01*
X83523310Y-53644982D01*
X83522693Y-54351916D01*
X83792655Y-55005274D01*
X84056943Y-55270024D01*
X83794412Y-55532096D01*
X83523310Y-56184982D01*
X83522693Y-56891916D01*
X83792655Y-57545274D01*
X84292096Y-58045588D01*
X84944982Y-58316690D01*
X85651916Y-58317307D01*
X85823001Y-58246616D01*
X85823001Y-74893063D01*
X85655018Y-74823310D01*
X84948084Y-74822693D01*
X84294726Y-75092655D01*
X83794412Y-75592096D01*
X83523310Y-76244982D01*
X83522693Y-76951916D01*
X83792655Y-77605274D01*
X84056943Y-77870024D01*
X83794412Y-78132096D01*
X83523310Y-78784982D01*
X83522693Y-79491916D01*
X83673000Y-79855687D01*
X83673000Y-80964489D01*
X83523310Y-81324982D01*
X83522693Y-82031916D01*
X83792655Y-82685274D01*
X84292096Y-83185588D01*
X84944982Y-83456690D01*
X85651916Y-83457307D01*
X86305274Y-83187345D01*
X86805588Y-82687904D01*
X86850802Y-82579016D01*
X99820590Y-82579016D01*
X99876271Y-82809611D01*
X100359078Y-82977622D01*
X100869428Y-82948083D01*
X101203729Y-82809611D01*
X101259410Y-82579016D01*
X100540000Y-81859605D01*
X99820590Y-82579016D01*
X86850802Y-82579016D01*
X87076690Y-82035018D01*
X87077157Y-81499078D01*
X99242378Y-81499078D01*
X99271917Y-82009428D01*
X99410389Y-82343729D01*
X99640984Y-82399410D01*
X100360395Y-81680000D01*
X100719605Y-81680000D01*
X101439016Y-82399410D01*
X101669611Y-82343729D01*
X101837622Y-81860922D01*
X101808083Y-81350572D01*
X101669611Y-81016271D01*
X101439016Y-80960590D01*
X100719605Y-81680000D01*
X100360395Y-81680000D01*
X99640984Y-80960590D01*
X99410389Y-81016271D01*
X99242378Y-81499078D01*
X87077157Y-81499078D01*
X87077307Y-81328084D01*
X86927000Y-80964313D01*
X86927000Y-80586266D01*
X87369701Y-80290463D01*
X87621148Y-80039016D01*
X99820590Y-80039016D01*
X99876271Y-80269611D01*
X100274566Y-80408213D01*
X100210572Y-80411917D01*
X99876271Y-80550389D01*
X99820590Y-80780984D01*
X100540000Y-81500395D01*
X101259410Y-80780984D01*
X101203729Y-80550389D01*
X100805434Y-80411787D01*
X100869428Y-80408083D01*
X101203729Y-80269611D01*
X101259410Y-80039016D01*
X100540000Y-79319605D01*
X99820590Y-80039016D01*
X87621148Y-80039016D01*
X88600464Y-79059700D01*
X88667697Y-78959078D01*
X99242378Y-78959078D01*
X99271917Y-79469428D01*
X99410389Y-79803729D01*
X99640984Y-79859410D01*
X100360395Y-79140000D01*
X100719605Y-79140000D01*
X101439016Y-79859410D01*
X101669611Y-79803729D01*
X101837622Y-79320922D01*
X101808083Y-78810572D01*
X101669611Y-78476271D01*
X101439016Y-78420590D01*
X100719605Y-79140000D01*
X100360395Y-79140000D01*
X99640984Y-78420590D01*
X99410389Y-78476271D01*
X99242378Y-78959078D01*
X88667697Y-78959078D01*
X88953153Y-78531863D01*
X89011012Y-78240984D01*
X99820590Y-78240984D01*
X100540000Y-78960395D01*
X101259410Y-78240984D01*
X101203729Y-78010389D01*
X100720922Y-77842378D01*
X100210572Y-77871917D01*
X99876271Y-78010389D01*
X99820590Y-78240984D01*
X89011012Y-78240984D01*
X89077002Y-77909237D01*
X89077001Y-77909232D01*
X89077001Y-52522801D01*
X99504527Y-52522801D01*
X99034412Y-52992096D01*
X98763310Y-53644982D01*
X98762693Y-54351916D01*
X99032655Y-55005274D01*
X99296943Y-55270024D01*
X99034412Y-55532096D01*
X98763310Y-56184982D01*
X98762693Y-56891916D01*
X99032655Y-57545274D01*
X99532096Y-58045588D01*
X100184982Y-58316690D01*
X100891916Y-58317307D01*
X101545274Y-58047345D01*
X101592701Y-58000000D01*
X117066575Y-58000000D01*
X117217037Y-58756424D01*
X117560198Y-59270000D01*
X117217037Y-59783576D01*
X117066575Y-60540000D01*
X117217037Y-61296424D01*
X117645517Y-61937688D01*
X118286781Y-62366168D01*
X119043205Y-62516630D01*
X120956795Y-62516630D01*
X121713219Y-62366168D01*
X122354483Y-61937688D01*
X122782963Y-61296424D01*
X122933425Y-60540000D01*
X122782963Y-59783576D01*
X122678342Y-59627000D01*
X122750060Y-59627000D01*
X123372686Y-59503152D01*
X123900523Y-59150463D01*
X124750463Y-58300523D01*
X125103152Y-57772686D01*
X125227001Y-57150060D01*
X125227000Y-57150055D01*
X125227000Y-50544879D01*
X125505000Y-50544879D01*
X125922641Y-50466294D01*
X126306219Y-50219469D01*
X126563548Y-49842856D01*
X126654079Y-49395800D01*
X126654079Y-45585800D01*
X126575494Y-45168159D01*
X126328669Y-44784581D01*
X125952056Y-44527252D01*
X125505000Y-44436721D01*
X121695000Y-44436721D01*
X121277359Y-44515306D01*
X120893781Y-44762131D01*
X120636452Y-45138744D01*
X120545921Y-45585800D01*
X120545921Y-49395800D01*
X120624506Y-49813441D01*
X120871331Y-50197019D01*
X121247944Y-50454348D01*
X121695000Y-50544879D01*
X121973000Y-50544879D01*
X121973000Y-54446431D01*
X121585906Y-54136982D01*
X121027430Y-53975370D01*
X120127000Y-53975370D01*
X120127000Y-55333000D01*
X120147000Y-55333000D01*
X120147000Y-55587000D01*
X120127000Y-55587000D01*
X120127000Y-55607000D01*
X119873000Y-55607000D01*
X119873000Y-55587000D01*
X117779786Y-55587000D01*
X117658460Y-55816832D01*
X117679351Y-55910810D01*
X117948781Y-56399677D01*
X117645517Y-56602312D01*
X117217037Y-57243576D01*
X117066575Y-58000000D01*
X101592701Y-58000000D01*
X102045588Y-57547904D01*
X102316690Y-56895018D01*
X102317307Y-56188084D01*
X102047345Y-55534726D01*
X101783057Y-55269976D01*
X101950157Y-55103168D01*
X117658460Y-55103168D01*
X117779786Y-55333000D01*
X119873000Y-55333000D01*
X119873000Y-53975370D01*
X118972570Y-53975370D01*
X118414094Y-54136982D01*
X117959976Y-54500011D01*
X117679351Y-55009190D01*
X117658460Y-55103168D01*
X101950157Y-55103168D01*
X102045588Y-55007904D01*
X102316690Y-54355018D01*
X102317307Y-53648084D01*
X102047345Y-52994726D01*
X101576243Y-52522801D01*
X107489999Y-52522801D01*
X108112625Y-52398953D01*
X108640462Y-52046264D01*
X110843604Y-49843121D01*
X111071331Y-50197019D01*
X111447944Y-50454348D01*
X111895000Y-50544879D01*
X115705000Y-50544879D01*
X116122641Y-50466294D01*
X116506219Y-50219469D01*
X116763548Y-49842856D01*
X116854079Y-49395800D01*
X116854079Y-45585800D01*
X116775494Y-45168159D01*
X116528669Y-44784581D01*
X116152056Y-44527252D01*
X115705000Y-44436721D01*
X111895000Y-44436721D01*
X111477359Y-44515306D01*
X111093781Y-44762131D01*
X110836452Y-45138744D01*
X110745921Y-45585800D01*
X110745921Y-45893453D01*
X110272374Y-45987648D01*
X109744537Y-46340337D01*
X109744535Y-46340340D01*
X106816073Y-49268801D01*
X100754079Y-49268801D01*
X100754079Y-45585800D01*
X100675494Y-45168159D01*
X100428669Y-44784581D01*
X100052056Y-44527252D01*
X99605000Y-44436721D01*
X95795000Y-44436721D01*
X95377359Y-44515306D01*
X94993781Y-44762131D01*
X94736452Y-45138744D01*
X94645921Y-45585800D01*
X94645921Y-49268801D01*
X90954079Y-49268801D01*
X90954079Y-45585800D01*
X90875494Y-45168159D01*
X90628669Y-44784581D01*
X90252056Y-44527252D01*
X89805000Y-44436721D01*
X85995000Y-44436721D01*
X85577359Y-44515306D01*
X85193781Y-44762131D01*
X84936452Y-45138744D01*
X84845921Y-45585800D01*
X84845921Y-49268801D01*
X76154079Y-49268801D01*
X76154079Y-45585800D01*
X76075494Y-45168159D01*
X75828669Y-44784581D01*
X75452056Y-44527252D01*
X75005000Y-44436721D01*
X71195000Y-44436721D01*
X70777359Y-44515306D01*
X70393781Y-44762131D01*
X70136452Y-45138744D01*
X70045921Y-45585800D01*
X70045921Y-49268801D01*
X66354079Y-49268801D01*
X66354079Y-45585800D01*
X66275494Y-45168159D01*
X66028669Y-44784581D01*
X65652056Y-44527252D01*
X65205000Y-44436721D01*
X61395000Y-44436721D01*
X60977359Y-44515306D01*
X60593781Y-44762131D01*
X60336452Y-45138744D01*
X60245921Y-45585800D01*
X60245921Y-49268801D01*
X49840000Y-49268801D01*
X49840000Y-47776550D01*
X49681250Y-47617800D01*
X47427000Y-47617800D01*
X47427000Y-47637800D01*
X47173000Y-47637800D01*
X47173000Y-47617800D01*
X44918750Y-47617800D01*
X44760000Y-47776550D01*
X44760000Y-49268801D01*
X44483926Y-49268801D01*
X41555463Y-46340337D01*
X41027626Y-45987648D01*
X40554079Y-45893454D01*
X40554079Y-45585800D01*
X40530313Y-45459491D01*
X44760000Y-45459491D01*
X44760000Y-47205050D01*
X44918750Y-47363800D01*
X47173000Y-47363800D01*
X47173000Y-45109550D01*
X47427000Y-45109550D01*
X47427000Y-47363800D01*
X49681250Y-47363800D01*
X49840000Y-47205050D01*
X49840000Y-45459491D01*
X49743327Y-45226102D01*
X49564699Y-45047473D01*
X49331310Y-44950800D01*
X47585750Y-44950800D01*
X47427000Y-45109550D01*
X47173000Y-45109550D01*
X47014250Y-44950800D01*
X45268690Y-44950800D01*
X45035301Y-45047473D01*
X44856673Y-45226102D01*
X44760000Y-45459491D01*
X40530313Y-45459491D01*
X40475494Y-45168159D01*
X40228669Y-44784581D01*
X39852056Y-44527252D01*
X39405000Y-44436721D01*
X35595000Y-44436721D01*
X35177359Y-44515306D01*
X34793781Y-44762131D01*
X34536452Y-45138744D01*
X34445921Y-45585800D01*
X31627000Y-45585800D01*
X31627000Y-31202000D01*
X34445921Y-31202000D01*
X34445921Y-34105000D01*
X34445921Y-34105000D01*
G37*
X34445921Y-34105000D02*
X34524506Y-34522641D01*
X34771331Y-34906219D01*
X35147944Y-35163548D01*
X35595000Y-35254079D01*
X39405000Y-35254079D01*
X39822641Y-35175494D01*
X40206219Y-34928669D01*
X40463548Y-34552056D01*
X40554079Y-34105000D01*
X40554079Y-32485750D01*
X44760000Y-32485750D01*
X44760000Y-34231309D01*
X44856673Y-34464698D01*
X45035301Y-34643327D01*
X45268690Y-34740000D01*
X47014250Y-34740000D01*
X47173000Y-34581250D01*
X47173000Y-32327000D01*
X47427000Y-32327000D01*
X47427000Y-34581250D01*
X47585750Y-34740000D01*
X49331310Y-34740000D01*
X49564699Y-34643327D01*
X49743327Y-34464698D01*
X49840000Y-34231309D01*
X49840000Y-32485750D01*
X49681250Y-32327000D01*
X47427000Y-32327000D01*
X47173000Y-32327000D01*
X44918750Y-32327000D01*
X44760000Y-32485750D01*
X40554079Y-32485750D01*
X40554079Y-31202000D01*
X44760000Y-31202000D01*
X44760000Y-31914250D01*
X44918750Y-32073000D01*
X47173000Y-32073000D01*
X47173000Y-32053000D01*
X47427000Y-32053000D01*
X47427000Y-32073000D01*
X49681250Y-32073000D01*
X49840000Y-31914250D01*
X49840000Y-31202000D01*
X60245921Y-31202000D01*
X60245921Y-34105000D01*
X60324506Y-34522641D01*
X60571331Y-34906219D01*
X60947944Y-35163548D01*
X61395000Y-35254079D01*
X65205000Y-35254079D01*
X65622641Y-35175494D01*
X66006219Y-34928669D01*
X66263548Y-34552056D01*
X66354079Y-34105000D01*
X66354079Y-31202000D01*
X70045921Y-31202000D01*
X70045921Y-34105000D01*
X70124506Y-34522641D01*
X70371331Y-34906219D01*
X70747944Y-35163548D01*
X71195000Y-35254079D01*
X75005000Y-35254079D01*
X75422641Y-35175494D01*
X75806219Y-34928669D01*
X76063548Y-34552056D01*
X76154079Y-34105000D01*
X76154079Y-31202000D01*
X84845921Y-31202000D01*
X84845921Y-34105000D01*
X84924506Y-34522641D01*
X85171331Y-34906219D01*
X85547944Y-35163548D01*
X85995000Y-35254079D01*
X89805000Y-35254079D01*
X90222641Y-35175494D01*
X90606219Y-34928669D01*
X90863548Y-34552056D01*
X90954079Y-34105000D01*
X90954079Y-31202000D01*
X94645921Y-31202000D01*
X94645921Y-34105000D01*
X94724506Y-34522641D01*
X94971331Y-34906219D01*
X95347944Y-35163548D01*
X95795000Y-35254079D01*
X99605000Y-35254079D01*
X100022641Y-35175494D01*
X100406219Y-34928669D01*
X100663548Y-34552056D01*
X100754079Y-34105000D01*
X100754079Y-31202000D01*
X110745921Y-31202000D01*
X110745921Y-34105000D01*
X110824506Y-34522641D01*
X111071331Y-34906219D01*
X111447944Y-35163548D01*
X111895000Y-35254079D01*
X115705000Y-35254079D01*
X116122641Y-35175494D01*
X116506219Y-34928669D01*
X116763548Y-34552056D01*
X116854079Y-34105000D01*
X116854079Y-31202000D01*
X120545921Y-31202000D01*
X120545921Y-34105000D01*
X120624506Y-34522641D01*
X120871331Y-34906219D01*
X121247944Y-35163548D01*
X121695000Y-35254079D01*
X125505000Y-35254079D01*
X125922641Y-35175494D01*
X126306219Y-34928669D01*
X126563548Y-34552056D01*
X126654079Y-34105000D01*
X126654079Y-31202000D01*
X128373000Y-31202000D01*
X128373000Y-128798000D01*
X113389359Y-128798000D01*
X113399079Y-128750000D01*
X113399079Y-126750000D01*
X113320494Y-126332359D01*
X113073669Y-125948781D01*
X112697056Y-125691452D01*
X112250000Y-125600921D01*
X110250000Y-125600921D01*
X109832359Y-125679506D01*
X109611850Y-125821399D01*
X109134943Y-125623370D01*
X108288770Y-125622632D01*
X107506726Y-125945766D01*
X106907869Y-126543578D01*
X106583370Y-127325057D01*
X106582632Y-128171230D01*
X106841608Y-128798000D01*
X106202000Y-128798000D01*
X106202000Y-122127000D01*
X112916840Y-122127000D01*
X112916840Y-123877060D01*
X113146993Y-124780116D01*
X113705211Y-125526355D01*
X114506510Y-126002169D01*
X114803887Y-126082546D01*
X115174900Y-125972745D01*
X115174900Y-122127000D01*
X115428900Y-122127000D01*
X115428900Y-125972745D01*
X115799913Y-126082546D01*
X116097290Y-126002169D01*
X116898589Y-125526355D01*
X117456807Y-124780116D01*
X117686960Y-123877060D01*
X117686960Y-122127000D01*
X123114940Y-122127000D01*
X123114940Y-123877060D01*
X123345093Y-124780116D01*
X123903311Y-125526355D01*
X124704610Y-126002169D01*
X125001987Y-126082546D01*
X125373000Y-125972745D01*
X125373000Y-122127000D01*
X125627000Y-122127000D01*
X125627000Y-125972745D01*
X125998013Y-126082546D01*
X126295390Y-126002169D01*
X127096689Y-125526355D01*
X127654907Y-124780116D01*
X127885060Y-123877060D01*
X127885060Y-122127000D01*
X125627000Y-122127000D01*
X125373000Y-122127000D01*
X123114940Y-122127000D01*
X117686960Y-122127000D01*
X115428900Y-122127000D01*
X115174900Y-122127000D01*
X112916840Y-122127000D01*
X106202000Y-122127000D01*
X106202000Y-120122940D01*
X112916840Y-120122940D01*
X112916840Y-121873000D01*
X115174900Y-121873000D01*
X115174900Y-118027255D01*
X115428900Y-118027255D01*
X115428900Y-121873000D01*
X117686960Y-121873000D01*
X117686960Y-120122940D01*
X117456807Y-119219884D01*
X116898589Y-118473645D01*
X116097290Y-117997831D01*
X115799913Y-117917454D01*
X115428900Y-118027255D01*
X115174900Y-118027255D01*
X114803887Y-117917454D01*
X114506510Y-117997831D01*
X113705211Y-118473645D01*
X113146993Y-119219884D01*
X112916840Y-120122940D01*
X106202000Y-120122940D01*
X106202000Y-120000000D01*
X106110503Y-119540015D01*
X105849942Y-119150058D01*
X105459985Y-118889497D01*
X105000000Y-118798000D01*
X65000000Y-118798000D01*
X64540015Y-118889497D01*
X64150058Y-119150058D01*
X63889497Y-119540015D01*
X63798000Y-120000000D01*
X63798000Y-128798000D01*
X31627000Y-128798000D01*
X31627000Y-124723163D01*
X32306226Y-125403575D01*
X33565337Y-125926404D01*
X34928682Y-125927594D01*
X35214054Y-125809681D01*
X35229161Y-126169460D01*
X35413357Y-126614148D01*
X35669841Y-126700554D01*
X36570395Y-125800000D01*
X36556253Y-125785858D01*
X36735858Y-125606253D01*
X36750000Y-125620395D01*
X36764143Y-125606253D01*
X36943748Y-125785858D01*
X36929605Y-125800000D01*
X36943748Y-125814143D01*
X36764143Y-125993748D01*
X36750000Y-125979605D01*
X35849446Y-126880159D01*
X35935852Y-127136643D01*
X36509336Y-127346458D01*
X37119460Y-127320839D01*
X37564148Y-127136643D01*
X37603523Y-127019763D01*
X38100298Y-127517405D01*
X38845036Y-127826647D01*
X39651426Y-127827351D01*
X40396703Y-127519409D01*
X40499680Y-127416611D01*
X40600298Y-127517405D01*
X41345036Y-127826647D01*
X42151426Y-127827351D01*
X42896703Y-127519409D01*
X43467405Y-126949702D01*
X43776647Y-126204964D01*
X43776890Y-125926589D01*
X44928682Y-125927594D01*
X46188704Y-125406963D01*
X46875352Y-124721512D01*
X47556226Y-125403575D01*
X48815337Y-125926404D01*
X50178682Y-125927594D01*
X50464054Y-125809681D01*
X50479161Y-126169460D01*
X50663357Y-126614148D01*
X50919841Y-126700554D01*
X51820395Y-125800000D01*
X51806253Y-125785858D01*
X51985858Y-125606253D01*
X52000000Y-125620395D01*
X52014143Y-125606253D01*
X52193748Y-125785858D01*
X52179605Y-125800000D01*
X52193748Y-125814143D01*
X52014143Y-125993748D01*
X52000000Y-125979605D01*
X51099446Y-126880159D01*
X51185852Y-127136643D01*
X51759336Y-127346458D01*
X52369460Y-127320839D01*
X52814148Y-127136643D01*
X52853523Y-127019763D01*
X53350298Y-127517405D01*
X54095036Y-127826647D01*
X54901426Y-127827351D01*
X55646703Y-127519409D01*
X55749680Y-127416611D01*
X55850298Y-127517405D01*
X56595036Y-127826647D01*
X57401426Y-127827351D01*
X58146703Y-127519409D01*
X58717405Y-126949702D01*
X59026647Y-126204964D01*
X59026890Y-125926589D01*
X60178682Y-125927594D01*
X61438704Y-125406963D01*
X62403575Y-124443774D01*
X62926404Y-123184663D01*
X62927594Y-121821318D01*
X62406963Y-120561296D01*
X61487322Y-119640050D01*
X63888174Y-117239198D01*
X118475120Y-117239198D01*
X118475120Y-118231482D01*
X118621812Y-118968951D01*
X119039555Y-119594147D01*
X119664751Y-120011890D01*
X120402220Y-120158582D01*
X121139689Y-120011890D01*
X121764885Y-119594147D01*
X121972154Y-119283947D01*
X121976613Y-119289492D01*
X122469723Y-119559381D01*
X122552525Y-119576923D01*
X122774580Y-119454936D01*
X122774580Y-117862340D01*
X123028580Y-117862340D01*
X123028580Y-119454936D01*
X123250635Y-119576923D01*
X123254296Y-119576147D01*
X123114940Y-120122940D01*
X123114940Y-121873000D01*
X125373000Y-121873000D01*
X125373000Y-118027255D01*
X125627000Y-118027255D01*
X125627000Y-121873000D01*
X127885060Y-121873000D01*
X127885060Y-120122940D01*
X127654907Y-119219884D01*
X127096689Y-118473645D01*
X126295390Y-117997831D01*
X125998013Y-117917454D01*
X125627000Y-118027255D01*
X125373000Y-118027255D01*
X125001987Y-117917454D01*
X124704610Y-117997831D01*
X124336680Y-118216309D01*
X124336680Y-117862340D01*
X123028580Y-117862340D01*
X122774580Y-117862340D01*
X122754580Y-117862340D01*
X122754580Y-117608340D01*
X122774580Y-117608340D01*
X122774580Y-116015744D01*
X123028580Y-116015744D01*
X123028580Y-117608340D01*
X124336680Y-117608340D01*
X124336680Y-117158760D01*
X124178839Y-116619238D01*
X123826547Y-116181188D01*
X123333437Y-115911299D01*
X123250635Y-115893757D01*
X123028580Y-116015744D01*
X122774580Y-116015744D01*
X122552525Y-115893757D01*
X122469723Y-115911299D01*
X121976613Y-116181188D01*
X121972154Y-116186733D01*
X121764885Y-115876533D01*
X121139689Y-115458790D01*
X120402220Y-115312098D01*
X119664751Y-115458790D01*
X119039555Y-115876533D01*
X118621812Y-116501729D01*
X118475120Y-117239198D01*
X63888174Y-117239198D01*
X69580353Y-111547019D01*
X69941622Y-111547334D01*
X70650132Y-111254584D01*
X70829839Y-111075190D01*
X71007017Y-111252678D01*
X71715014Y-111546665D01*
X72481622Y-111547334D01*
X73190132Y-111254584D01*
X73369839Y-111075190D01*
X73547017Y-111252678D01*
X74255014Y-111546665D01*
X75021622Y-111547334D01*
X75730132Y-111254584D01*
X75909839Y-111075190D01*
X76087017Y-111252678D01*
X76795014Y-111546665D01*
X77561622Y-111547334D01*
X78270132Y-111254584D01*
X78449839Y-111075190D01*
X78627017Y-111252678D01*
X79335014Y-111546665D01*
X80101622Y-111547334D01*
X80810132Y-111254584D01*
X80989839Y-111075190D01*
X81167017Y-111252678D01*
X81875014Y-111546665D01*
X82641622Y-111547334D01*
X83350132Y-111254584D01*
X83529839Y-111075190D01*
X83707017Y-111252678D01*
X84415014Y-111546665D01*
X85181622Y-111547334D01*
X85890132Y-111254584D01*
X86069839Y-111075190D01*
X86247017Y-111252678D01*
X86955014Y-111546665D01*
X87721622Y-111547334D01*
X88430132Y-111254584D01*
X88503000Y-111181843D01*
X88503000Y-113815147D01*
X88453248Y-113934963D01*
X88452752Y-114502659D01*
X88669543Y-115027331D01*
X89070614Y-115429103D01*
X89594907Y-115646808D01*
X90162603Y-115647304D01*
X90315733Y-115584032D01*
X90421481Y-115839959D01*
X90822552Y-116241731D01*
X91346845Y-116459436D01*
X91914541Y-116459932D01*
X92439213Y-116243141D01*
X92840985Y-115842070D01*
X92891445Y-115720549D01*
X93393686Y-115218308D01*
X93692182Y-114771577D01*
X93797000Y-114244622D01*
X93797000Y-111374097D01*
X109280673Y-111374097D01*
X109567650Y-112068635D01*
X110098570Y-112600483D01*
X110792606Y-112888672D01*
X111544097Y-112889327D01*
X112015721Y-112694456D01*
X111821328Y-113162606D01*
X111820673Y-113914097D01*
X112107650Y-114608635D01*
X112638570Y-115140483D01*
X113332606Y-115428672D01*
X114084097Y-115429327D01*
X114778635Y-115142350D01*
X115310483Y-114611430D01*
X115598672Y-113917394D01*
X115599327Y-113165903D01*
X115404456Y-112694279D01*
X115872606Y-112888672D01*
X116624097Y-112889327D01*
X117318635Y-112602350D01*
X117850483Y-112071430D01*
X118138672Y-111377394D01*
X118139327Y-110625903D01*
X117852350Y-109931365D01*
X117321430Y-109399517D01*
X116627394Y-109111328D01*
X115875903Y-109110673D01*
X115181365Y-109397650D01*
X114649517Y-109928570D01*
X114361328Y-110622606D01*
X114360673Y-111374097D01*
X114555544Y-111845721D01*
X114087394Y-111651328D01*
X113335903Y-111650673D01*
X112864279Y-111845544D01*
X113058672Y-111377394D01*
X113059327Y-110625903D01*
X112772350Y-109931365D01*
X112241430Y-109399517D01*
X111547394Y-109111328D01*
X110795903Y-109110673D01*
X110101365Y-109397650D01*
X109569517Y-109928570D01*
X109281328Y-110622606D01*
X109280673Y-111374097D01*
X93797000Y-111374097D01*
X93797000Y-110968216D01*
X94052678Y-110712983D01*
X94346665Y-110004986D01*
X94347334Y-109238378D01*
X94054584Y-108529868D01*
X93512983Y-107987322D01*
X92804986Y-107693335D01*
X92038378Y-107692666D01*
X91329868Y-107985416D01*
X91150161Y-108164810D01*
X90972983Y-107987322D01*
X90264986Y-107693335D01*
X89498378Y-107692666D01*
X88789868Y-107985416D01*
X88610161Y-108164810D01*
X88432983Y-107987322D01*
X87724986Y-107693335D01*
X86958378Y-107692666D01*
X86249868Y-107985416D01*
X86070161Y-108164810D01*
X85892983Y-107987322D01*
X85184986Y-107693335D01*
X84418378Y-107692666D01*
X83709868Y-107985416D01*
X83530161Y-108164810D01*
X83352983Y-107987322D01*
X82644986Y-107693335D01*
X81878378Y-107692666D01*
X81169868Y-107985416D01*
X80990161Y-108164810D01*
X80812983Y-107987322D01*
X80104986Y-107693335D01*
X79338378Y-107692666D01*
X78629868Y-107985416D01*
X78450161Y-108164810D01*
X78272983Y-107987322D01*
X77564986Y-107693335D01*
X76798378Y-107692666D01*
X76089868Y-107985416D01*
X75910161Y-108164810D01*
X75732983Y-107987322D01*
X75024986Y-107693335D01*
X74258378Y-107692666D01*
X73549868Y-107985416D01*
X73370161Y-108164810D01*
X73192983Y-107987322D01*
X72484986Y-107693335D01*
X71718378Y-107692666D01*
X71009868Y-107985416D01*
X70830161Y-108164810D01*
X70652983Y-107987322D01*
X69944986Y-107693335D01*
X69580389Y-107693017D01*
X67683676Y-105796304D01*
X67236945Y-105497808D01*
X66709990Y-105392990D01*
X38058998Y-105392990D01*
X34198611Y-101532603D01*
X102822752Y-101532603D01*
X103039543Y-102057275D01*
X103440614Y-102459047D01*
X103964907Y-102676752D01*
X104532603Y-102677248D01*
X105057275Y-102460457D01*
X105459047Y-102059386D01*
X105676752Y-101535093D01*
X105677248Y-100967397D01*
X105627000Y-100845788D01*
X105627000Y-73820372D01*
X110687372Y-68760000D01*
X110807275Y-68710457D01*
X111209047Y-68309386D01*
X111426752Y-67785093D01*
X111427248Y-67217397D01*
X111210457Y-66692725D01*
X110809386Y-66290953D01*
X110285093Y-66073248D01*
X109717397Y-66072752D01*
X109192725Y-66289543D01*
X108790953Y-66690614D01*
X108740493Y-66812135D01*
X103276314Y-72276314D01*
X102977818Y-72723045D01*
X102873000Y-73250000D01*
X102873000Y-100845091D01*
X102823248Y-100964907D01*
X102822752Y-101532603D01*
X34198611Y-101532603D01*
X34026999Y-101360991D01*
X34026999Y-96307025D01*
X34381622Y-96307334D01*
X35090132Y-96014584D01*
X35269839Y-95835190D01*
X35447017Y-96012678D01*
X36155014Y-96306665D01*
X36921622Y-96307334D01*
X37630132Y-96014584D01*
X37809839Y-95835190D01*
X37987017Y-96012678D01*
X38695014Y-96306665D01*
X39461622Y-96307334D01*
X40170132Y-96014584D01*
X40349839Y-95835190D01*
X40527017Y-96012678D01*
X41235014Y-96306665D01*
X42001622Y-96307334D01*
X42710132Y-96014584D01*
X42889839Y-95835190D01*
X43067017Y-96012678D01*
X43775014Y-96306665D01*
X44541622Y-96307334D01*
X45250132Y-96014584D01*
X45429839Y-95835190D01*
X45607017Y-96012678D01*
X46315014Y-96306665D01*
X47081622Y-96307334D01*
X47790132Y-96014584D01*
X47969839Y-95835190D01*
X48147017Y-96012678D01*
X48855014Y-96306665D01*
X49621622Y-96307334D01*
X50330132Y-96014584D01*
X50509839Y-95835190D01*
X50687017Y-96012678D01*
X51395014Y-96306665D01*
X52161622Y-96307334D01*
X52870132Y-96014584D01*
X53049839Y-95835190D01*
X53227017Y-96012678D01*
X53935014Y-96306665D01*
X54701622Y-96307334D01*
X55410132Y-96014584D01*
X55589839Y-95835190D01*
X55767017Y-96012678D01*
X56475014Y-96306665D01*
X57241622Y-96307334D01*
X57950132Y-96014584D01*
X58129839Y-95835190D01*
X58307017Y-96012678D01*
X59015014Y-96306665D01*
X59781622Y-96307334D01*
X60490132Y-96014584D01*
X60669839Y-95835190D01*
X60847017Y-96012678D01*
X61555014Y-96306665D01*
X62321622Y-96307334D01*
X63030132Y-96014584D01*
X63209839Y-95835190D01*
X63387017Y-96012678D01*
X64095014Y-96306665D01*
X64861622Y-96307334D01*
X65570132Y-96014584D01*
X65749839Y-95835190D01*
X65927017Y-96012678D01*
X66635014Y-96306665D01*
X67401622Y-96307334D01*
X68110132Y-96014584D01*
X68289839Y-95835190D01*
X68467017Y-96012678D01*
X69175014Y-96306665D01*
X69941622Y-96307334D01*
X70650132Y-96014584D01*
X70829839Y-95835190D01*
X71007017Y-96012678D01*
X71715014Y-96306665D01*
X72481622Y-96307334D01*
X73190132Y-96014584D01*
X73369839Y-95835190D01*
X73547017Y-96012678D01*
X74255014Y-96306665D01*
X75021622Y-96307334D01*
X75730132Y-96014584D01*
X75909839Y-95835190D01*
X76087017Y-96012678D01*
X76795014Y-96306665D01*
X77561622Y-96307334D01*
X78270132Y-96014584D01*
X78449839Y-95835190D01*
X78627017Y-96012678D01*
X79335014Y-96306665D01*
X80101622Y-96307334D01*
X80810132Y-96014584D01*
X80989839Y-95835190D01*
X81167017Y-96012678D01*
X81875014Y-96306665D01*
X82641622Y-96307334D01*
X83350132Y-96014584D01*
X83529839Y-95835190D01*
X83707017Y-96012678D01*
X84415014Y-96306665D01*
X85181622Y-96307334D01*
X85890132Y-96014584D01*
X86069839Y-95835190D01*
X86247017Y-96012678D01*
X86955014Y-96306665D01*
X87721622Y-96307334D01*
X88430132Y-96014584D01*
X88609839Y-95835190D01*
X88787017Y-96012678D01*
X89495014Y-96306665D01*
X90261622Y-96307334D01*
X90970132Y-96014584D01*
X91149839Y-95835190D01*
X91327017Y-96012678D01*
X92035014Y-96306665D01*
X92801622Y-96307334D01*
X93510132Y-96014584D01*
X94052678Y-95472983D01*
X94346665Y-94764986D01*
X94347334Y-93998378D01*
X94054584Y-93289868D01*
X93512983Y-92747322D01*
X92804986Y-92453335D01*
X92038378Y-92452666D01*
X91329868Y-92745416D01*
X91150161Y-92924810D01*
X90972983Y-92747322D01*
X90264986Y-92453335D01*
X89498378Y-92452666D01*
X88789868Y-92745416D01*
X88610161Y-92924810D01*
X88432983Y-92747322D01*
X87724986Y-92453335D01*
X86958378Y-92452666D01*
X86249868Y-92745416D01*
X86070161Y-92924810D01*
X85892983Y-92747322D01*
X85184986Y-92453335D01*
X84418378Y-92452666D01*
X83709868Y-92745416D01*
X83530161Y-92924810D01*
X83352983Y-92747322D01*
X82644986Y-92453335D01*
X81878378Y-92452666D01*
X81169868Y-92745416D01*
X80990161Y-92924810D01*
X80812983Y-92747322D01*
X80104986Y-92453335D01*
X79338378Y-92452666D01*
X78629868Y-92745416D01*
X78450161Y-92924810D01*
X78272983Y-92747322D01*
X77564986Y-92453335D01*
X76798378Y-92452666D01*
X76089868Y-92745416D01*
X75910161Y-92924810D01*
X75732983Y-92747322D01*
X75024986Y-92453335D01*
X74258378Y-92452666D01*
X73549868Y-92745416D01*
X73370161Y-92924810D01*
X73192983Y-92747322D01*
X72484986Y-92453335D01*
X71718378Y-92452666D01*
X71009868Y-92745416D01*
X70830161Y-92924810D01*
X70652983Y-92747322D01*
X69944986Y-92453335D01*
X69178378Y-92452666D01*
X68469868Y-92745416D01*
X68290161Y-92924810D01*
X68112983Y-92747322D01*
X67404986Y-92453335D01*
X66638378Y-92452666D01*
X65929868Y-92745416D01*
X65750161Y-92924810D01*
X65572983Y-92747322D01*
X64864986Y-92453335D01*
X64098378Y-92452666D01*
X63389868Y-92745416D01*
X63210161Y-92924810D01*
X63032983Y-92747322D01*
X62324986Y-92453335D01*
X61558378Y-92452666D01*
X60849868Y-92745416D01*
X60670161Y-92924810D01*
X60492983Y-92747322D01*
X59784986Y-92453335D01*
X59018378Y-92452666D01*
X58309868Y-92745416D01*
X58130161Y-92924810D01*
X57952983Y-92747322D01*
X57244986Y-92453335D01*
X56478378Y-92452666D01*
X55769868Y-92745416D01*
X55590161Y-92924810D01*
X55412983Y-92747322D01*
X54934811Y-92548767D01*
X55011770Y-92533459D01*
X55657567Y-92101951D01*
X56089075Y-91456154D01*
X56240600Y-90694384D01*
X56240600Y-90305616D01*
X56089075Y-89543846D01*
X55657567Y-88898049D01*
X55011770Y-88466541D01*
X54250000Y-88315016D01*
X53488230Y-88466541D01*
X52842433Y-88898049D01*
X52647816Y-89189314D01*
X52612036Y-89149268D01*
X52084791Y-88895291D01*
X52069026Y-88892642D01*
X51837000Y-89013783D01*
X51837000Y-90373000D01*
X51857000Y-90373000D01*
X51857000Y-90627000D01*
X51837000Y-90627000D01*
X51837000Y-91986217D01*
X52069026Y-92107358D01*
X52084791Y-92104709D01*
X52612036Y-91850732D01*
X52647816Y-91810686D01*
X52842433Y-92101951D01*
X53488230Y-92533459D01*
X53660103Y-92567647D01*
X53229868Y-92745416D01*
X53050161Y-92924810D01*
X52872983Y-92747322D01*
X52164986Y-92453335D01*
X51398378Y-92452666D01*
X50689868Y-92745416D01*
X50510161Y-92924810D01*
X50332983Y-92747322D01*
X49854811Y-92548767D01*
X49931770Y-92533459D01*
X50577567Y-92101951D01*
X50772184Y-91810686D01*
X50807964Y-91850732D01*
X51335209Y-92104709D01*
X51350974Y-92107358D01*
X51583000Y-91986217D01*
X51583000Y-90627000D01*
X51563000Y-90627000D01*
X51563000Y-90373000D01*
X51583000Y-90373000D01*
X51583000Y-89013783D01*
X51350974Y-88892642D01*
X51335209Y-88895291D01*
X50807964Y-89149268D01*
X50772184Y-89189314D01*
X50577567Y-88898049D01*
X49931770Y-88466541D01*
X49170000Y-88315016D01*
X48408230Y-88466541D01*
X48202236Y-88604182D01*
X47940656Y-88425452D01*
X47493600Y-88334921D01*
X45766400Y-88334921D01*
X45348759Y-88413506D01*
X44965181Y-88660331D01*
X44707852Y-89036944D01*
X44690425Y-89123000D01*
X35381386Y-89123000D01*
X34854431Y-89227818D01*
X34407700Y-89526314D01*
X31676313Y-92257701D01*
X31627000Y-92331503D01*
X31627000Y-45585800D01*
X34445921Y-45585800D01*
X34445921Y-49395800D01*
X34524506Y-49813441D01*
X34771331Y-50197019D01*
X35147944Y-50454348D01*
X35595000Y-50544879D01*
X39405000Y-50544879D01*
X39822641Y-50466294D01*
X40206219Y-50219469D01*
X40460537Y-49847263D01*
X42659536Y-52046261D01*
X42659538Y-52046264D01*
X42958861Y-52246265D01*
X43187375Y-52398953D01*
X43810001Y-52522802D01*
X43810006Y-52522801D01*
X59624527Y-52522801D01*
X59154412Y-52992096D01*
X58883310Y-53644982D01*
X58882693Y-54351916D01*
X59152655Y-55005274D01*
X59416943Y-55270024D01*
X59154412Y-55532096D01*
X58883310Y-56184982D01*
X58882693Y-56891916D01*
X59152655Y-57545274D01*
X59652096Y-58045588D01*
X60304982Y-58316690D01*
X61011916Y-58317307D01*
X61183001Y-58246616D01*
X61183001Y-74893063D01*
X61015018Y-74823310D01*
X60308084Y-74822693D01*
X59654726Y-75092655D01*
X59154412Y-75592096D01*
X58883310Y-76244982D01*
X58882693Y-76951916D01*
X59152655Y-77605274D01*
X59416943Y-77870024D01*
X59154412Y-78132096D01*
X58883310Y-78784982D01*
X58882693Y-79491916D01*
X59033000Y-79855687D01*
X59033000Y-80964489D01*
X58883310Y-81324982D01*
X58882693Y-82031916D01*
X59152655Y-82685274D01*
X59652096Y-83185588D01*
X60304982Y-83456690D01*
X61011916Y-83457307D01*
X61665274Y-83187345D01*
X62165588Y-82687904D01*
X62210802Y-82579016D01*
X75180590Y-82579016D01*
X75236271Y-82809611D01*
X75719078Y-82977622D01*
X76229428Y-82948083D01*
X76563729Y-82809611D01*
X76619410Y-82579016D01*
X75900000Y-81859605D01*
X75180590Y-82579016D01*
X62210802Y-82579016D01*
X62436690Y-82035018D01*
X62437157Y-81499078D01*
X74602378Y-81499078D01*
X74631917Y-82009428D01*
X74770389Y-82343729D01*
X75000984Y-82399410D01*
X75720395Y-81680000D01*
X76079605Y-81680000D01*
X76799016Y-82399410D01*
X77029611Y-82343729D01*
X77197622Y-81860922D01*
X77168083Y-81350572D01*
X77029611Y-81016271D01*
X76799016Y-80960590D01*
X76079605Y-81680000D01*
X75720395Y-81680000D01*
X75000984Y-80960590D01*
X74770389Y-81016271D01*
X74602378Y-81499078D01*
X62437157Y-81499078D01*
X62437307Y-81328084D01*
X62287000Y-80964313D01*
X62287000Y-80586266D01*
X62729701Y-80290463D01*
X62981148Y-80039016D01*
X75180590Y-80039016D01*
X75236271Y-80269611D01*
X75634566Y-80408213D01*
X75570572Y-80411917D01*
X75236271Y-80550389D01*
X75180590Y-80780984D01*
X75900000Y-81500395D01*
X76619410Y-80780984D01*
X76563729Y-80550389D01*
X76165434Y-80411787D01*
X76229428Y-80408083D01*
X76563729Y-80269611D01*
X76619410Y-80039016D01*
X75900000Y-79319605D01*
X75180590Y-80039016D01*
X62981148Y-80039016D01*
X63960464Y-79059700D01*
X64027697Y-78959078D01*
X74602378Y-78959078D01*
X74631917Y-79469428D01*
X74770389Y-79803729D01*
X75000984Y-79859410D01*
X75720395Y-79140000D01*
X76079605Y-79140000D01*
X76799016Y-79859410D01*
X77029611Y-79803729D01*
X77197622Y-79320922D01*
X77168083Y-78810572D01*
X77029611Y-78476271D01*
X76799016Y-78420590D01*
X76079605Y-79140000D01*
X75720395Y-79140000D01*
X75000984Y-78420590D01*
X74770389Y-78476271D01*
X74602378Y-78959078D01*
X64027697Y-78959078D01*
X64313153Y-78531863D01*
X64371012Y-78240984D01*
X75180590Y-78240984D01*
X75900000Y-78960395D01*
X76619410Y-78240984D01*
X76563729Y-78010389D01*
X76080922Y-77842378D01*
X75570572Y-77871917D01*
X75236271Y-78010389D01*
X75180590Y-78240984D01*
X64371012Y-78240984D01*
X64437002Y-77909237D01*
X64437001Y-77909232D01*
X64437001Y-52522801D01*
X74864527Y-52522801D01*
X74394412Y-52992096D01*
X74123310Y-53644982D01*
X74122693Y-54351916D01*
X74392655Y-55005274D01*
X74656943Y-55270024D01*
X74394412Y-55532096D01*
X74123310Y-56184982D01*
X74122693Y-56891916D01*
X74392655Y-57545274D01*
X74892096Y-58045588D01*
X75544982Y-58316690D01*
X76251916Y-58317307D01*
X76905274Y-58047345D01*
X77405588Y-57547904D01*
X77676690Y-56895018D01*
X77677307Y-56188084D01*
X77407345Y-55534726D01*
X77143057Y-55269976D01*
X77405588Y-55007904D01*
X77676690Y-54355018D01*
X77677307Y-53648084D01*
X77407345Y-52994726D01*
X76936243Y-52522801D01*
X84264527Y-52522801D01*
X83794412Y-52992096D01*
X83523310Y-53644982D01*
X83522693Y-54351916D01*
X83792655Y-55005274D01*
X84056943Y-55270024D01*
X83794412Y-55532096D01*
X83523310Y-56184982D01*
X83522693Y-56891916D01*
X83792655Y-57545274D01*
X84292096Y-58045588D01*
X84944982Y-58316690D01*
X85651916Y-58317307D01*
X85823001Y-58246616D01*
X85823001Y-74893063D01*
X85655018Y-74823310D01*
X84948084Y-74822693D01*
X84294726Y-75092655D01*
X83794412Y-75592096D01*
X83523310Y-76244982D01*
X83522693Y-76951916D01*
X83792655Y-77605274D01*
X84056943Y-77870024D01*
X83794412Y-78132096D01*
X83523310Y-78784982D01*
X83522693Y-79491916D01*
X83673000Y-79855687D01*
X83673000Y-80964489D01*
X83523310Y-81324982D01*
X83522693Y-82031916D01*
X83792655Y-82685274D01*
X84292096Y-83185588D01*
X84944982Y-83456690D01*
X85651916Y-83457307D01*
X86305274Y-83187345D01*
X86805588Y-82687904D01*
X86850802Y-82579016D01*
X99820590Y-82579016D01*
X99876271Y-82809611D01*
X100359078Y-82977622D01*
X100869428Y-82948083D01*
X101203729Y-82809611D01*
X101259410Y-82579016D01*
X100540000Y-81859605D01*
X99820590Y-82579016D01*
X86850802Y-82579016D01*
X87076690Y-82035018D01*
X87077157Y-81499078D01*
X99242378Y-81499078D01*
X99271917Y-82009428D01*
X99410389Y-82343729D01*
X99640984Y-82399410D01*
X100360395Y-81680000D01*
X100719605Y-81680000D01*
X101439016Y-82399410D01*
X101669611Y-82343729D01*
X101837622Y-81860922D01*
X101808083Y-81350572D01*
X101669611Y-81016271D01*
X101439016Y-80960590D01*
X100719605Y-81680000D01*
X100360395Y-81680000D01*
X99640984Y-80960590D01*
X99410389Y-81016271D01*
X99242378Y-81499078D01*
X87077157Y-81499078D01*
X87077307Y-81328084D01*
X86927000Y-80964313D01*
X86927000Y-80586266D01*
X87369701Y-80290463D01*
X87621148Y-80039016D01*
X99820590Y-80039016D01*
X99876271Y-80269611D01*
X100274566Y-80408213D01*
X100210572Y-80411917D01*
X99876271Y-80550389D01*
X99820590Y-80780984D01*
X100540000Y-81500395D01*
X101259410Y-80780984D01*
X101203729Y-80550389D01*
X100805434Y-80411787D01*
X100869428Y-80408083D01*
X101203729Y-80269611D01*
X101259410Y-80039016D01*
X100540000Y-79319605D01*
X99820590Y-80039016D01*
X87621148Y-80039016D01*
X88600464Y-79059700D01*
X88667697Y-78959078D01*
X99242378Y-78959078D01*
X99271917Y-79469428D01*
X99410389Y-79803729D01*
X99640984Y-79859410D01*
X100360395Y-79140000D01*
X100719605Y-79140000D01*
X101439016Y-79859410D01*
X101669611Y-79803729D01*
X101837622Y-79320922D01*
X101808083Y-78810572D01*
X101669611Y-78476271D01*
X101439016Y-78420590D01*
X100719605Y-79140000D01*
X100360395Y-79140000D01*
X99640984Y-78420590D01*
X99410389Y-78476271D01*
X99242378Y-78959078D01*
X88667697Y-78959078D01*
X88953153Y-78531863D01*
X89011012Y-78240984D01*
X99820590Y-78240984D01*
X100540000Y-78960395D01*
X101259410Y-78240984D01*
X101203729Y-78010389D01*
X100720922Y-77842378D01*
X100210572Y-77871917D01*
X99876271Y-78010389D01*
X99820590Y-78240984D01*
X89011012Y-78240984D01*
X89077002Y-77909237D01*
X89077001Y-77909232D01*
X89077001Y-52522801D01*
X99504527Y-52522801D01*
X99034412Y-52992096D01*
X98763310Y-53644982D01*
X98762693Y-54351916D01*
X99032655Y-55005274D01*
X99296943Y-55270024D01*
X99034412Y-55532096D01*
X98763310Y-56184982D01*
X98762693Y-56891916D01*
X99032655Y-57545274D01*
X99532096Y-58045588D01*
X100184982Y-58316690D01*
X100891916Y-58317307D01*
X101545274Y-58047345D01*
X101592701Y-58000000D01*
X117066575Y-58000000D01*
X117217037Y-58756424D01*
X117560198Y-59270000D01*
X117217037Y-59783576D01*
X117066575Y-60540000D01*
X117217037Y-61296424D01*
X117645517Y-61937688D01*
X118286781Y-62366168D01*
X119043205Y-62516630D01*
X120956795Y-62516630D01*
X121713219Y-62366168D01*
X122354483Y-61937688D01*
X122782963Y-61296424D01*
X122933425Y-60540000D01*
X122782963Y-59783576D01*
X122678342Y-59627000D01*
X122750060Y-59627000D01*
X123372686Y-59503152D01*
X123900523Y-59150463D01*
X124750463Y-58300523D01*
X125103152Y-57772686D01*
X125227001Y-57150060D01*
X125227000Y-57150055D01*
X125227000Y-50544879D01*
X125505000Y-50544879D01*
X125922641Y-50466294D01*
X126306219Y-50219469D01*
X126563548Y-49842856D01*
X126654079Y-49395800D01*
X126654079Y-45585800D01*
X126575494Y-45168159D01*
X126328669Y-44784581D01*
X125952056Y-44527252D01*
X125505000Y-44436721D01*
X121695000Y-44436721D01*
X121277359Y-44515306D01*
X120893781Y-44762131D01*
X120636452Y-45138744D01*
X120545921Y-45585800D01*
X120545921Y-49395800D01*
X120624506Y-49813441D01*
X120871331Y-50197019D01*
X121247944Y-50454348D01*
X121695000Y-50544879D01*
X121973000Y-50544879D01*
X121973000Y-54446431D01*
X121585906Y-54136982D01*
X121027430Y-53975370D01*
X120127000Y-53975370D01*
X120127000Y-55333000D01*
X120147000Y-55333000D01*
X120147000Y-55587000D01*
X120127000Y-55587000D01*
X120127000Y-55607000D01*
X119873000Y-55607000D01*
X119873000Y-55587000D01*
X117779786Y-55587000D01*
X117658460Y-55816832D01*
X117679351Y-55910810D01*
X117948781Y-56399677D01*
X117645517Y-56602312D01*
X117217037Y-57243576D01*
X117066575Y-58000000D01*
X101592701Y-58000000D01*
X102045588Y-57547904D01*
X102316690Y-56895018D01*
X102317307Y-56188084D01*
X102047345Y-55534726D01*
X101783057Y-55269976D01*
X101950157Y-55103168D01*
X117658460Y-55103168D01*
X117779786Y-55333000D01*
X119873000Y-55333000D01*
X119873000Y-53975370D01*
X118972570Y-53975370D01*
X118414094Y-54136982D01*
X117959976Y-54500011D01*
X117679351Y-55009190D01*
X117658460Y-55103168D01*
X101950157Y-55103168D01*
X102045588Y-55007904D01*
X102316690Y-54355018D01*
X102317307Y-53648084D01*
X102047345Y-52994726D01*
X101576243Y-52522801D01*
X107489999Y-52522801D01*
X108112625Y-52398953D01*
X108640462Y-52046264D01*
X110843604Y-49843121D01*
X111071331Y-50197019D01*
X111447944Y-50454348D01*
X111895000Y-50544879D01*
X115705000Y-50544879D01*
X116122641Y-50466294D01*
X116506219Y-50219469D01*
X116763548Y-49842856D01*
X116854079Y-49395800D01*
X116854079Y-45585800D01*
X116775494Y-45168159D01*
X116528669Y-44784581D01*
X116152056Y-44527252D01*
X115705000Y-44436721D01*
X111895000Y-44436721D01*
X111477359Y-44515306D01*
X111093781Y-44762131D01*
X110836452Y-45138744D01*
X110745921Y-45585800D01*
X110745921Y-45893453D01*
X110272374Y-45987648D01*
X109744537Y-46340337D01*
X109744535Y-46340340D01*
X106816073Y-49268801D01*
X100754079Y-49268801D01*
X100754079Y-45585800D01*
X100675494Y-45168159D01*
X100428669Y-44784581D01*
X100052056Y-44527252D01*
X99605000Y-44436721D01*
X95795000Y-44436721D01*
X95377359Y-44515306D01*
X94993781Y-44762131D01*
X94736452Y-45138744D01*
X94645921Y-45585800D01*
X94645921Y-49268801D01*
X90954079Y-49268801D01*
X90954079Y-45585800D01*
X90875494Y-45168159D01*
X90628669Y-44784581D01*
X90252056Y-44527252D01*
X89805000Y-44436721D01*
X85995000Y-44436721D01*
X85577359Y-44515306D01*
X85193781Y-44762131D01*
X84936452Y-45138744D01*
X84845921Y-45585800D01*
X84845921Y-49268801D01*
X76154079Y-49268801D01*
X76154079Y-45585800D01*
X76075494Y-45168159D01*
X75828669Y-44784581D01*
X75452056Y-44527252D01*
X75005000Y-44436721D01*
X71195000Y-44436721D01*
X70777359Y-44515306D01*
X70393781Y-44762131D01*
X70136452Y-45138744D01*
X70045921Y-45585800D01*
X70045921Y-49268801D01*
X66354079Y-49268801D01*
X66354079Y-45585800D01*
X66275494Y-45168159D01*
X66028669Y-44784581D01*
X65652056Y-44527252D01*
X65205000Y-44436721D01*
X61395000Y-44436721D01*
X60977359Y-44515306D01*
X60593781Y-44762131D01*
X60336452Y-45138744D01*
X60245921Y-45585800D01*
X60245921Y-49268801D01*
X49840000Y-49268801D01*
X49840000Y-47776550D01*
X49681250Y-47617800D01*
X47427000Y-47617800D01*
X47427000Y-47637800D01*
X47173000Y-47637800D01*
X47173000Y-47617800D01*
X44918750Y-47617800D01*
X44760000Y-47776550D01*
X44760000Y-49268801D01*
X44483926Y-49268801D01*
X41555463Y-46340337D01*
X41027626Y-45987648D01*
X40554079Y-45893454D01*
X40554079Y-45585800D01*
X40530313Y-45459491D01*
X44760000Y-45459491D01*
X44760000Y-47205050D01*
X44918750Y-47363800D01*
X47173000Y-47363800D01*
X47173000Y-45109550D01*
X47427000Y-45109550D01*
X47427000Y-47363800D01*
X49681250Y-47363800D01*
X49840000Y-47205050D01*
X49840000Y-45459491D01*
X49743327Y-45226102D01*
X49564699Y-45047473D01*
X49331310Y-44950800D01*
X47585750Y-44950800D01*
X47427000Y-45109550D01*
X47173000Y-45109550D01*
X47014250Y-44950800D01*
X45268690Y-44950800D01*
X45035301Y-45047473D01*
X44856673Y-45226102D01*
X44760000Y-45459491D01*
X40530313Y-45459491D01*
X40475494Y-45168159D01*
X40228669Y-44784581D01*
X39852056Y-44527252D01*
X39405000Y-44436721D01*
X35595000Y-44436721D01*
X35177359Y-44515306D01*
X34793781Y-44762131D01*
X34536452Y-45138744D01*
X34445921Y-45585800D01*
X31627000Y-45585800D01*
X31627000Y-31202000D01*
X34445921Y-31202000D01*
X34445921Y-34105000D01*
G36*
X31676313Y-102905049D02*
X36464197Y-107692933D01*
X36158378Y-107692666D01*
X35449868Y-107985416D01*
X35155031Y-108279740D01*
X34926309Y-108185000D01*
X34285750Y-108185000D01*
X34127000Y-108343750D01*
X34127000Y-109493000D01*
X34147000Y-109493000D01*
X34147000Y-109747000D01*
X34127000Y-109747000D01*
X34127000Y-110896250D01*
X34285750Y-111055000D01*
X34926309Y-111055000D01*
X35155086Y-110960237D01*
X35447017Y-111252678D01*
X36155014Y-111546665D01*
X36921622Y-111547334D01*
X37630132Y-111254584D01*
X37809839Y-111075190D01*
X37987017Y-111252678D01*
X38695014Y-111546665D01*
X39461622Y-111547334D01*
X40170132Y-111254584D01*
X40349839Y-111075190D01*
X40527017Y-111252678D01*
X41235014Y-111546665D01*
X42001622Y-111547334D01*
X42710132Y-111254584D01*
X42889839Y-111075190D01*
X43067017Y-111252678D01*
X43775014Y-111546665D01*
X44541622Y-111547334D01*
X45250132Y-111254584D01*
X45429839Y-111075190D01*
X45607017Y-111252678D01*
X46315014Y-111546665D01*
X47081622Y-111547334D01*
X47790132Y-111254584D01*
X47969839Y-111075190D01*
X48147017Y-111252678D01*
X48855014Y-111546665D01*
X49621622Y-111547334D01*
X50330132Y-111254584D01*
X50509839Y-111075190D01*
X50687017Y-111252678D01*
X51395014Y-111546665D01*
X52161622Y-111547334D01*
X52870132Y-111254584D01*
X53049839Y-111075190D01*
X53227017Y-111252678D01*
X53935014Y-111546665D01*
X54701622Y-111547334D01*
X55410132Y-111254584D01*
X55589839Y-111075190D01*
X55767017Y-111252678D01*
X56475014Y-111546665D01*
X57241622Y-111547334D01*
X57950132Y-111254584D01*
X58129839Y-111075190D01*
X58307017Y-111252678D01*
X59015014Y-111546665D01*
X59781622Y-111547334D01*
X60490132Y-111254584D01*
X60669839Y-111075190D01*
X60847017Y-111252678D01*
X61555014Y-111546665D01*
X62321622Y-111547334D01*
X63030132Y-111254584D01*
X63209839Y-111075190D01*
X63387017Y-111252678D01*
X64095014Y-111546665D01*
X64861622Y-111547334D01*
X65570132Y-111254584D01*
X65749839Y-111075190D01*
X65927017Y-111252678D01*
X65964419Y-111268209D01*
X58959629Y-118272999D01*
X56200002Y-118272999D01*
X56100001Y-118292890D01*
X56000000Y-118272999D01*
X43047000Y-118272999D01*
X43047000Y-116515366D01*
X43448230Y-116783459D01*
X44210000Y-116934984D01*
X44971770Y-116783459D01*
X45480000Y-116443870D01*
X45988230Y-116783459D01*
X46750000Y-116934984D01*
X47511770Y-116783459D01*
X48020000Y-116443870D01*
X48528230Y-116783459D01*
X49290000Y-116934984D01*
X50051770Y-116783459D01*
X50560000Y-116443870D01*
X51068230Y-116783459D01*
X51830000Y-116934984D01*
X52591770Y-116783459D01*
X53237567Y-116351951D01*
X53669075Y-115706154D01*
X53820600Y-114944384D01*
X53820600Y-114555616D01*
X53669075Y-113793846D01*
X53237567Y-113148049D01*
X52591770Y-112716541D01*
X51830000Y-112565016D01*
X51068230Y-112716541D01*
X50560000Y-113056130D01*
X50051770Y-112716541D01*
X49290000Y-112565016D01*
X48528230Y-112716541D01*
X48020000Y-113056130D01*
X47511770Y-112716541D01*
X46750000Y-112565016D01*
X45988230Y-112716541D01*
X45480000Y-113056130D01*
X44971770Y-112716541D01*
X44210000Y-112565016D01*
X43448230Y-112716541D01*
X42940000Y-113056130D01*
X42431770Y-112716541D01*
X41670000Y-112565016D01*
X40908230Y-112716541D01*
X40262433Y-113148049D01*
X40257207Y-113155870D01*
X40119910Y-113099000D01*
X39415750Y-113099000D01*
X39257000Y-113257750D01*
X39257000Y-114623000D01*
X39277000Y-114623000D01*
X39277000Y-114877000D01*
X39257000Y-114877000D01*
X39257000Y-116242250D01*
X39415750Y-116401000D01*
X40119910Y-116401000D01*
X40257207Y-116344130D01*
X40262433Y-116351951D01*
X40293000Y-116372375D01*
X40293000Y-119005765D01*
X40147818Y-119223045D01*
X40043000Y-119750000D01*
X40043000Y-121031447D01*
X40022999Y-121131999D01*
X40022999Y-123926174D01*
X39654964Y-123773353D01*
X38848574Y-123772649D01*
X38103297Y-124080591D01*
X37603336Y-124579681D01*
X37564148Y-124463357D01*
X37200663Y-124330372D01*
X37676404Y-123184663D01*
X37677594Y-121821318D01*
X37156963Y-120561296D01*
X36193774Y-119596425D01*
X34934663Y-119073596D01*
X33571318Y-119072406D01*
X32311296Y-119593037D01*
X31627000Y-120276140D01*
X31627000Y-115035750D01*
X37631400Y-115035750D01*
X37631400Y-115892309D01*
X37728073Y-116125698D01*
X37906701Y-116304327D01*
X38140090Y-116401000D01*
X38844250Y-116401000D01*
X39003000Y-116242250D01*
X39003000Y-114877000D01*
X37790150Y-114877000D01*
X37631400Y-115035750D01*
X31627000Y-115035750D01*
X31627000Y-113607691D01*
X37631400Y-113607691D01*
X37631400Y-114464250D01*
X37790150Y-114623000D01*
X39003000Y-114623000D01*
X39003000Y-113257750D01*
X38844250Y-113099000D01*
X38140090Y-113099000D01*
X37906701Y-113195673D01*
X37728073Y-113374302D01*
X37631400Y-113607691D01*
X31627000Y-113607691D01*
X31627000Y-109905750D01*
X32565000Y-109905750D01*
X32565000Y-110546310D01*
X32661673Y-110779699D01*
X32840302Y-110958327D01*
X33073691Y-111055000D01*
X33714250Y-111055000D01*
X33873000Y-110896250D01*
X33873000Y-109747000D01*
X32723750Y-109747000D01*
X32565000Y-109905750D01*
X31627000Y-109905750D01*
X31627000Y-108693690D01*
X32565000Y-108693690D01*
X32565000Y-109334250D01*
X32723750Y-109493000D01*
X33873000Y-109493000D01*
X33873000Y-108343750D01*
X33714250Y-108185000D01*
X33073691Y-108185000D01*
X32840302Y-108281673D01*
X32661673Y-108460301D01*
X32565000Y-108693690D01*
X31627000Y-108693690D01*
X31627000Y-102831247D01*
X31676313Y-102905049D01*
X31676313Y-102905049D01*
G37*
X31676313Y-102905049D02*
X36464197Y-107692933D01*
X36158378Y-107692666D01*
X35449868Y-107985416D01*
X35155031Y-108279740D01*
X34926309Y-108185000D01*
X34285750Y-108185000D01*
X34127000Y-108343750D01*
X34127000Y-109493000D01*
X34147000Y-109493000D01*
X34147000Y-109747000D01*
X34127000Y-109747000D01*
X34127000Y-110896250D01*
X34285750Y-111055000D01*
X34926309Y-111055000D01*
X35155086Y-110960237D01*
X35447017Y-111252678D01*
X36155014Y-111546665D01*
X36921622Y-111547334D01*
X37630132Y-111254584D01*
X37809839Y-111075190D01*
X37987017Y-111252678D01*
X38695014Y-111546665D01*
X39461622Y-111547334D01*
X40170132Y-111254584D01*
X40349839Y-111075190D01*
X40527017Y-111252678D01*
X41235014Y-111546665D01*
X42001622Y-111547334D01*
X42710132Y-111254584D01*
X42889839Y-111075190D01*
X43067017Y-111252678D01*
X43775014Y-111546665D01*
X44541622Y-111547334D01*
X45250132Y-111254584D01*
X45429839Y-111075190D01*
X45607017Y-111252678D01*
X46315014Y-111546665D01*
X47081622Y-111547334D01*
X47790132Y-111254584D01*
X47969839Y-111075190D01*
X48147017Y-111252678D01*
X48855014Y-111546665D01*
X49621622Y-111547334D01*
X50330132Y-111254584D01*
X50509839Y-111075190D01*
X50687017Y-111252678D01*
X51395014Y-111546665D01*
X52161622Y-111547334D01*
X52870132Y-111254584D01*
X53049839Y-111075190D01*
X53227017Y-111252678D01*
X53935014Y-111546665D01*
X54701622Y-111547334D01*
X55410132Y-111254584D01*
X55589839Y-111075190D01*
X55767017Y-111252678D01*
X56475014Y-111546665D01*
X57241622Y-111547334D01*
X57950132Y-111254584D01*
X58129839Y-111075190D01*
X58307017Y-111252678D01*
X59015014Y-111546665D01*
X59781622Y-111547334D01*
X60490132Y-111254584D01*
X60669839Y-111075190D01*
X60847017Y-111252678D01*
X61555014Y-111546665D01*
X62321622Y-111547334D01*
X63030132Y-111254584D01*
X63209839Y-111075190D01*
X63387017Y-111252678D01*
X64095014Y-111546665D01*
X64861622Y-111547334D01*
X65570132Y-111254584D01*
X65749839Y-111075190D01*
X65927017Y-111252678D01*
X65964419Y-111268209D01*
X58959629Y-118272999D01*
X56200002Y-118272999D01*
X56100001Y-118292890D01*
X56000000Y-118272999D01*
X43047000Y-118272999D01*
X43047000Y-116515366D01*
X43448230Y-116783459D01*
X44210000Y-116934984D01*
X44971770Y-116783459D01*
X45480000Y-116443870D01*
X45988230Y-116783459D01*
X46750000Y-116934984D01*
X47511770Y-116783459D01*
X48020000Y-116443870D01*
X48528230Y-116783459D01*
X49290000Y-116934984D01*
X50051770Y-116783459D01*
X50560000Y-116443870D01*
X51068230Y-116783459D01*
X51830000Y-116934984D01*
X52591770Y-116783459D01*
X53237567Y-116351951D01*
X53669075Y-115706154D01*
X53820600Y-114944384D01*
X53820600Y-114555616D01*
X53669075Y-113793846D01*
X53237567Y-113148049D01*
X52591770Y-112716541D01*
X51830000Y-112565016D01*
X51068230Y-112716541D01*
X50560000Y-113056130D01*
X50051770Y-112716541D01*
X49290000Y-112565016D01*
X48528230Y-112716541D01*
X48020000Y-113056130D01*
X47511770Y-112716541D01*
X46750000Y-112565016D01*
X45988230Y-112716541D01*
X45480000Y-113056130D01*
X44971770Y-112716541D01*
X44210000Y-112565016D01*
X43448230Y-112716541D01*
X42940000Y-113056130D01*
X42431770Y-112716541D01*
X41670000Y-112565016D01*
X40908230Y-112716541D01*
X40262433Y-113148049D01*
X40257207Y-113155870D01*
X40119910Y-113099000D01*
X39415750Y-113099000D01*
X39257000Y-113257750D01*
X39257000Y-114623000D01*
X39277000Y-114623000D01*
X39277000Y-114877000D01*
X39257000Y-114877000D01*
X39257000Y-116242250D01*
X39415750Y-116401000D01*
X40119910Y-116401000D01*
X40257207Y-116344130D01*
X40262433Y-116351951D01*
X40293000Y-116372375D01*
X40293000Y-119005765D01*
X40147818Y-119223045D01*
X40043000Y-119750000D01*
X40043000Y-121031447D01*
X40022999Y-121131999D01*
X40022999Y-123926174D01*
X39654964Y-123773353D01*
X38848574Y-123772649D01*
X38103297Y-124080591D01*
X37603336Y-124579681D01*
X37564148Y-124463357D01*
X37200663Y-124330372D01*
X37676404Y-123184663D01*
X37677594Y-121821318D01*
X37156963Y-120561296D01*
X36193774Y-119596425D01*
X34934663Y-119073596D01*
X33571318Y-119072406D01*
X32311296Y-119593037D01*
X31627000Y-120276140D01*
X31627000Y-115035750D01*
X37631400Y-115035750D01*
X37631400Y-115892309D01*
X37728073Y-116125698D01*
X37906701Y-116304327D01*
X38140090Y-116401000D01*
X38844250Y-116401000D01*
X39003000Y-116242250D01*
X39003000Y-114877000D01*
X37790150Y-114877000D01*
X37631400Y-115035750D01*
X31627000Y-115035750D01*
X31627000Y-113607691D01*
X37631400Y-113607691D01*
X37631400Y-114464250D01*
X37790150Y-114623000D01*
X39003000Y-114623000D01*
X39003000Y-113257750D01*
X38844250Y-113099000D01*
X38140090Y-113099000D01*
X37906701Y-113195673D01*
X37728073Y-113374302D01*
X37631400Y-113607691D01*
X31627000Y-113607691D01*
X31627000Y-109905750D01*
X32565000Y-109905750D01*
X32565000Y-110546310D01*
X32661673Y-110779699D01*
X32840302Y-110958327D01*
X33073691Y-111055000D01*
X33714250Y-111055000D01*
X33873000Y-110896250D01*
X33873000Y-109747000D01*
X32723750Y-109747000D01*
X32565000Y-109905750D01*
X31627000Y-109905750D01*
X31627000Y-108693690D01*
X32565000Y-108693690D01*
X32565000Y-109334250D01*
X32723750Y-109493000D01*
X33873000Y-109493000D01*
X33873000Y-108343750D01*
X33714250Y-108185000D01*
X33073691Y-108185000D01*
X32840302Y-108281673D01*
X32661673Y-108460301D01*
X32565000Y-108693690D01*
X31627000Y-108693690D01*
X31627000Y-102831247D01*
X31676313Y-102905049D01*
M02*
