M48
;DRILL file {KiCad 4.0.2+dfsg1-stable} date Thu 24 Aug 2017 14:04:16 CEST
;FORMAT={-:-/ absolute / metric / decimal}
FMAT,2
METRIC,TZ
T1C0.400
T2C0.800
T3C0.813
T4C1.000
T5C1.001
T6C1.016
T7C1.100
T8C1.778
T9C2.200
T10C2.300
%
G90
G05
M71
T1
X39.98Y-59.75
X40.Y-61.5
X89.88Y-114.22
X91.632Y-115.033
X104.25Y-101.25
X110.Y-67.5
T2
X60.66Y-54.
X60.66Y-56.54
X60.66Y-76.6
X60.66Y-79.14
X60.66Y-81.68
X75.9Y-54.
X75.9Y-56.54
X75.9Y-79.14
X75.9Y-81.68
X85.3Y-54.
X85.3Y-56.54
X85.3Y-76.6
X85.3Y-79.14
X85.3Y-81.68
X100.54Y-54.
X100.54Y-56.54
X100.54Y-79.14
X100.54Y-81.68
T3
X111.17Y-111.
X113.71Y-113.54
X116.25Y-111.
T4
X36.75Y-125.8
X39.25Y-125.8
X41.75Y-125.8
X52.Y-125.8
X54.5Y-125.8
X57.Y-125.8
T5
X108.71Y-127.75
X111.25Y-127.75
X120.Y-55.46
X120.Y-58.
X120.Y-60.54
X120.402Y-117.735
X122.902Y-117.735
T6
X39.13Y-114.75
X41.67Y-114.75
X44.21Y-114.75
X46.63Y-90.5
X46.75Y-114.75
X49.17Y-90.5
X49.29Y-114.75
X51.71Y-90.5
X51.83Y-114.75
X54.25Y-90.5
T7
X34.Y-94.38
X34.Y-109.62
X36.54Y-94.38
X36.54Y-109.62
X39.08Y-94.38
X39.08Y-109.62
X41.62Y-94.38
X41.62Y-109.62
X44.16Y-94.38
X44.16Y-109.62
X46.7Y-94.38
X46.7Y-109.62
X49.24Y-94.38
X49.24Y-109.62
X51.78Y-94.38
X51.78Y-109.62
X54.32Y-94.38
X54.32Y-109.62
X56.86Y-94.38
X56.86Y-109.62
X59.4Y-94.38
X59.4Y-109.62
X61.94Y-94.38
X61.94Y-109.62
X64.48Y-94.38
X64.48Y-109.62
X67.02Y-94.38
X67.02Y-109.62
X69.56Y-94.38
X69.56Y-109.62
X72.1Y-94.38
X72.1Y-109.62
X74.64Y-94.38
X74.64Y-109.62
X77.18Y-94.38
X77.18Y-109.62
X79.72Y-94.38
X79.72Y-109.62
X82.26Y-94.38
X82.26Y-109.62
X84.8Y-94.38
X84.8Y-109.62
X87.34Y-94.38
X87.34Y-109.62
X89.88Y-94.38
X89.88Y-109.62
X92.42Y-94.38
X92.42Y-109.62
T8
X37.5Y-32.2
X37.5Y-47.491
X47.3Y-32.2
X47.3Y-47.491
X63.3Y-32.2
X63.3Y-47.491
X73.1Y-32.2
X73.1Y-47.491
X87.9Y-32.2
X87.9Y-47.491
X97.7Y-32.2
X97.7Y-47.491
X113.8Y-32.2
X113.8Y-47.491
X123.6Y-32.2
X123.6Y-47.491
T9
X115.302Y-122.
X125.5Y-122.
T10
X34.25Y-122.5
X44.25Y-122.5
X49.5Y-122.5
X59.5Y-122.5
T0
M30
