M48
;DRILL file {KiCad 4.0.7-e2-6376~58~ubuntu17.04.1} date Thu Oct 26 14:05:19 2017
;FORMAT={-:-/ absolute / metric / decimal}
FMAT,2
METRIC,TZ
T1C0.400
T2C0.900
T3C1.000
T4C1.100
T5C1.778
T6C2.000
%
G90
G05
M71
T1
X39.Y-109.25
X39.8Y-72.5
X39.8Y-79.5
X40.Y-109.75
X42.Y-78.5
X42.238Y-57.5
X42.5Y-92.5
X42.52Y-72.993
X43.727Y-56.401
X44.382Y-92.132
X46.Y-113.
X46.852Y-91.656
X48.5Y-73.
X48.5Y-75.5
X49.663Y-90.885
X51.Y-56.5
X51.1Y-111.
X53.5Y-73.
X53.503Y-57.608
X54.287Y-90.251
X54.5Y-100.7
X54.5Y-108.5
X54.867Y-89.664
X56.8Y-111.
X57.Y-93.689
X59.Y-113.3
X60.368Y-79.631
X60.937Y-79.069
X61.495Y-78.495
X62.5Y-74.5
X63.5Y-113.
X66.Y-109.
X68.5Y-93.689
X69.4Y-69.62
X71.Y-109.25
X72.Y-109.75
X72.5Y-59.5
X73.5Y-93.089
X76.Y-78.5
X76.Y-92.489
X78.Y-113.68
X78.5Y-91.889
X81.Y-91.289
X83.1Y-111.
X83.5Y-90.689
X86.Y-90.089
X86.5Y-108.534
X88.8Y-111.
X91.Y-113.2
X95.5Y-113.2
X97.268Y-69.543
X97.268Y-52.73
X98.Y-109.
X99.Y-55.5
X102.Y-79.258
X103.Y-109.25
X103.5Y-63.
X104.Y-109.75
X104.103Y-102.547
X104.573Y-101.9
X107.012Y-78.658
X108.Y-70.5
X108.Y-77.458
X108.Y-78.258
X108.Y-111.
X109.Y-77.458
X109.Y-93.
X110.Y-113.5
X110.5Y-102.5
X112.5Y-100.5
X115.Y-67.
X115.1Y-111.
X118.Y-87.
X118.5Y-108.5
X118.828Y-83.988
X120.8Y-111.
X121.921Y-70.745
X122.Y-72.
X123.Y-113.
X127.5Y-113.
T2
X40.Y-117.42
X42.54Y-117.42
X56.Y-117.42
X58.54Y-117.42
X72.Y-117.42
X74.54Y-117.42
X88.Y-117.42
X90.54Y-117.42
X104.Y-117.42
X106.54Y-117.42
X120.Y-117.42
X122.54Y-117.42
T3
X34.32Y-54.5
X34.32Y-69.74
X36.86Y-54.5
X36.86Y-69.74
X39.4Y-54.5
X59.46Y-54.5
X59.46Y-69.74
X62.Y-54.5
X62.Y-69.74
X66.86Y-54.38
X66.86Y-69.62
X69.4Y-54.38
X69.4Y-69.62
X89.46Y-69.62
X92.Y-54.38
X92.Y-69.62
X94.54Y-54.38
X94.54Y-69.62
X96.5Y-82.63
X96.5Y-85.17
X96.5Y-87.71
X96.5Y-90.25
X96.5Y-92.79
X96.5Y-95.33
X102.Y-93.
X104.54Y-93.
X105.5Y-79.96
X105.5Y-82.5
X111.5Y-84.
X111.5Y-86.54
X111.5Y-89.08
X111.5Y-91.62
X119.Y-55.46
X119.Y-58.
X119.Y-60.54
X126.5Y-76.
X126.5Y-78.54
T4
X32.88Y-81.
X32.88Y-96.24
X35.42Y-81.
X35.42Y-96.24
X37.96Y-81.
X37.96Y-96.24
X40.5Y-81.
X40.5Y-96.24
X43.04Y-81.
X43.04Y-96.24
X45.58Y-81.
X45.58Y-96.24
X48.12Y-81.
X48.12Y-96.24
X50.66Y-81.
X50.66Y-96.24
X53.2Y-81.
X53.2Y-96.24
X55.74Y-81.
X55.74Y-96.24
X58.28Y-81.
X58.28Y-96.24
X60.82Y-81.
X60.82Y-96.24
X63.36Y-81.
X63.36Y-96.24
X65.9Y-81.
X65.9Y-96.24
X68.44Y-81.
X68.44Y-96.24
X70.98Y-81.
X70.98Y-96.24
X73.52Y-81.
X73.52Y-96.24
X76.06Y-81.
X76.06Y-96.24
X78.6Y-81.
X78.6Y-96.24
X81.14Y-81.
X81.14Y-96.24
X83.68Y-81.
X83.68Y-96.24
X86.22Y-81.
X86.22Y-96.24
X88.76Y-81.
X88.76Y-96.24
X91.3Y-81.
X91.3Y-96.24
T5
X37.5Y-32.209
X37.5Y-47.5
X47.3Y-32.209
X47.3Y-47.5
X65.Y-32.209
X65.Y-47.5
X74.8Y-32.209
X74.8Y-47.5
X89.5Y-32.2
X89.5Y-47.491
X99.3Y-32.2
X99.3Y-47.491
X113.8Y-32.209
X113.8Y-47.5
X123.6Y-32.209
X123.6Y-47.5
T6
X34.92Y-122.5
X45.08Y-122.5
X50.92Y-122.5
X61.08Y-122.5
X66.92Y-122.5
X77.08Y-122.5
X82.92Y-122.5
X93.08Y-122.5
X98.92Y-122.5
X109.08Y-122.5
X114.92Y-122.5
X125.08Y-122.5
T0
M30
